<?xml version="1.0" encoding="UTF-8"?>
<svg version="1.1" xmlns="http://www.w3.org/2000/svg" width="400" height="400">
<path d="M0,0 L9,2 L48,16 L51,19 L52,22 L112,42 L115,44 L116,49 L121,50 L170,67 L194,76 L198,80 L197,89 L174,216 L165,273 L153,284 L143,292 L128,304 L105,320 L85,334 L67,348 L49,362 L31,376 L18,386 L5,396 L1,396 L-16,383 L-29,373 L-42,363 L-59,350 L-72,340 L-85,330 L-98,320 L-114,308 L-137,292 L-156,279 L-161,275 L-163,265 L-169,212 L-172,204 L-191,83 L-191,76 L-190,74 L-156,63 L-111,49 L-108,46 L-103,41 L-49,24 L-46,24 L-45,18 L-33,13 Z " fill="#2D0231" transform="translate(197,2)"/>
<path d="M0,0 L8,1 L26,7 L36,11 L49,15 L48,21 L51,21 L51,23 L58,23 L58,25 L70,27 L79,30 L88,33 L88,35 L97,36 L112,41 L110,45 L106,47 L106,50 L104,50 L103,53 L96,55 L94,60 L82,67 L81,73 L92,77 L139,92 L135,95 L133,95 L133,97 L131,97 L131,99 L135,97 L141,97 L147,102 L146,106 L136,112 L120,120 L103,129 L96,130 L87,125 L87,122 L92,121 L92,119 L85,121 L77,121 L77,123 L79,123 L79,125 L83,127 L86,129 L86,133 L53,150 L27,163 L21,164 L12,158 L12,155 L33,146 L58,134 L71,127 L73,123 L70,126 L64,127 L47,134 L8,153 L3,152 L-7,148 L-25,140 L-41,132 L-50,128 L-61,123 L-61,121 L-46,115 L-31,109 L-18,104 L-26,106 L-31,108 L-41,110 L-65,119 L-74,118 L-80,116 L-85,117 L-75,121 L-75,123 L-86,128 L-95,126 L-133,107 L-138,104 L-137,99 L-134,95 L-139,96 L-144,100 L-150,99 L-168,89 L-187,78 L-187,73 L-185,72 L-172,73 L-170,74 L-170,72 L-172,72 L-173,68 L-158,63 L-145,59 L-113,49 L-102,49 L-104,46 L-103,41 L-67,29 L-45,22 L-36,22 L-39,18 L-38,15 L-23,9 Z " fill="#1F054D" transform="translate(196,6)"/>
<path d="M0,0 L5,2 L13,6 L13,8 L18,10 L26,13 L35,18 L42,19 L44,24 L48,59 L48,64 L50,64 L50,75 L51,78 L54,77 L49,35 L48,31 L48,24 L50,24 L50,26 L55,27 L55,29 L64,32 L64,34 L73,37 L85,44 L91,46 L104,46 L105,62 L106,66 L109,99 L110,100 L110,115 L111,125 L113,126 L113,141 L115,141 L115,120 L116,123 L122,124 L131,130 L135,133 L141,135 L141,137 L150,140 L150,142 L161,144 L165,146 L166,148 L174,151 L178,153 L178,207 L171,206 L171,209 L176,210 L178,214 L178,266 L171,260 L162,255 L155,250 L150,245 L144,242 L138,237 L135,234 L131,231 L131,229 L127,227 L126,226 L126,219 L130,218 L131,212 L126,218 L124,218 L126,213 L126,210 L121,217 L119,226 L112,222 L112,220 L107,218 L92,209 L81,202 L78,199 L76,187 L74,157 L64,144 L59,135 L60,127 L56,130 L52,130 L58,137 L68,151 L71,155 L72,158 L72,195 L64,190 L48,178 L39,173 L26,165 L24,152 L23,151 L21,129 L21,120 L28,120 L31,121 L31,123 L40,125 L40,122 L36,121 L24,113 L16,104 L13,89 L9,66 L7,48 L5,37 L1,15 Z " fill="#2C0132" transform="translate(11,91)"/>
<path d="M0,0 L9,2 L48,16 L51,19 L52,22 L112,42 L115,44 L116,49 L121,50 L170,67 L180,71 L181,73 L177,74 L165,70 L158,67 L137,60 L124,55 L120,54 L112,54 L96,62 L91,63 L95,58 L102,56 L103,54 L105,54 L105,51 L110,47 L111,45 L99,42 L87,39 L87,37 L78,35 L65,31 L57,29 L57,27 L50,27 L50,25 L47,25 L47,20 L26,13 L16,9 L4,5 L-3,6 L-24,14 L-39,20 L-37,24 L-36,27 L-46,27 L-93,42 L-104,46 L-103,53 L-114,54 L-152,66 L-171,72 L-174,72 L-173,76 L-171,76 L-171,78 L-186,77 L-188,77 L-187,82 L-165,94 L-149,103 L-144,102 L-138,98 L-134,99 L-138,104 L-139,108 L-134,110 L-96,129 L-87,131 L-78,127 L-76,127 L-76,125 L-85,123 L-88,120 L-81,119 L-72,122 L-66,122 L-47,115 L-39,112 L-29,110 L-25,108 L-17,107 L-18,109 L-40,117 L-60,125 L-62,125 L-62,127 L-53,130 L-44,134 L-31,141 L-21,145 L-2,154 L3,156 L9,155 L50,135 L65,129 L70,128 L73,125 L72,130 L69,133 L53,141 L19,157 L14,159 L11,159 L11,162 L16,164 L20,167 L26,166 L76,141 L83,137 L85,137 L84,133 L78,129 L78,127 L76,127 L76,125 L87,123 L91,123 L91,125 L86,127 L89,130 L95,133 L102,132 L121,122 L137,114 L145,109 L146,106 L142,104 L140,102 L134,102 L130,103 L130,101 L132,101 L132,99 L136,97 L143,98 L154,104 L154,106 L150,106 L150,121 L148,132 L146,137 L144,136 L145,128 L146,114 L130,124 L120,128 L110,134 L100,138 L91,138 L88,164 L86,197 L85,201 L93,199 L108,194 L117,191 L120,192 L119,195 L98,203 L87,206 L84,206 L80,226 L79,251 L94,251 L92,254 L78,255 L71,265 L69,264 L70,258 L74,253 L76,229 L78,211 L80,206 L78,206 L79,199 L80,197 L82,171 L84,158 L85,141 L71,150 L34,168 L27,172 L17,172 L15,223 L14,238 L11,237 L11,209 L12,168 L-3,168 L-2,192 L-1,239 L10,239 L11,243 L-4,243 L-3,264 L-3,301 L7,304 L7,307 L-3,307 L-2,360 L1,362 L6,363 L8,358 L9,332 L12,331 L13,360 L20,356 L30,347 L49,334 L63,325 L63,328 L53,336 L42,343 L26,355 L16,363 L14,363 L14,384 L31,371 L49,357 L56,352 L58,353 L53,359 L40,369 L22,383 L5,396 L1,396 L-16,383 L-29,373 L-42,363 L-59,350 L-72,340 L-85,330 L-98,320 L-114,308 L-137,292 L-156,279 L-161,275 L-163,265 L-169,212 L-172,204 L-191,83 L-191,76 L-190,74 L-156,63 L-111,49 L-108,46 L-103,41 L-49,24 L-46,24 L-45,18 L-33,13 Z M-186,89 L-185,104 L-180,133 L-179,137 L-177,155 L-171,190 L-168,195 L-161,203 L-149,211 L-146,211 L-146,214 L-155,212 L-155,210 L-158,209 L-165,209 L-164,230 L-163,240 L-162,241 L-160,254 L-145,263 L-134,270 L-121,280 L-114,284 L-114,247 L-117,241 L-127,228 L-130,223 L-134,219 L-129,218 L-126,216 L-127,224 L-119,237 L-112,246 L-110,276 L-108,288 L-102,293 L-79,307 L-74,309 L-74,311 L-67,315 L-65,306 L-60,299 L-61,303 L-62,307 L-58,305 L-55,302 L-56,307 L-60,308 L-60,315 L-57,318 L-55,318 L-53,322 L-49,324 L-44,329 L-41,332 L-36,334 L-31,339 L-21,346 L-13,351 L-8,355 L-8,303 L-11,298 L-15,298 L-14,295 L-8,296 L-8,242 L-13,239 L-20,237 L-21,235 L-25,233 L-33,232 L-36,231 L-37,228 L-45,226 L-45,224 L-52,221 L-63,214 L-67,212 L-70,212 L-71,209 L-71,230 L-73,230 L-73,215 L-75,214 L-76,202 L-76,189 L-77,188 L-80,155 L-81,151 L-82,135 L-95,135 L-104,131 L-120,123 L-122,123 L-122,121 L-131,118 L-132,115 L-136,115 L-136,113 L-138,113 L-138,120 L-136,132 L-132,166 L-135,167 L-136,164 L-136,153 L-138,153 L-140,128 L-143,109 L-144,108 L-153,106 L-160,102 L-168,99 L-173,97 L-174,94 L-181,91 Z " fill="#2D012C" transform="translate(197,2)"/>
<path d="M0,0 L2,0 L2,17 L0,30 L-2,56 L-5,65 L-3,65 L-6,88 L-8,112 L-12,117 L-13,125 L-23,138 L-24,140 L-24,146 L-15,160 L-13,162 L-13,167 L-16,167 L-20,164 L-16,168 L-16,185 L-17,199 L-19,205 L-27,212 L-43,224 L-58,236 L-67,243 L-69,243 L-69,222 L-56,212 L-37,198 L-26,191 L-20,186 L-24,188 L-39,197 L-55,209 L-67,219 L-70,219 L-71,216 L-72,191 L-74,191 L-74,217 L-77,222 L-82,222 L-86,219 L-86,166 L-76,166 L-76,163 L-83,162 L-86,160 L-87,123 L-87,102 L-72,102 L-73,99 L-84,98 L-85,96 L-86,51 L-86,27 L-84,26 L-73,26 L-71,27 L-71,94 L-70,94 L-69,82 L-67,35 L-66,31 L-53,29 L-43,23 L-8,6 Z " fill="#1F0016" transform="translate(280,143)"/>
<path d="M0,0 L5,3 L26,10 L51,18 L58,21 L57,25 L61,23 L67,23 L73,28 L72,32 L62,38 L46,46 L29,55 L22,56 L13,51 L13,48 L18,47 L18,45 L11,47 L3,47 L3,49 L5,49 L5,51 L9,53 L12,55 L12,59 L-21,76 L-47,89 L-53,90 L-62,84 L-62,81 L-41,72 L-16,60 L-3,53 L-1,49 L-4,52 L-10,53 L-27,60 L-66,79 L-71,78 L-81,74 L-99,66 L-115,58 L-124,54 L-135,49 L-135,47 L-120,41 L-105,35 L-80,26 L-65,24 L-62,23 L-61,19 L-52,14 L-48,14 L-48,16 L-52,19 L-54,19 L-54,24 L-41,29 L-15,39 L-2,39 L6,33 L7,29 L7,13 L3,5 L0,2 Z " fill="#8659FD" transform="translate(270,80)"/>
<path d="M0,0 L9,1 L25,9 L35,14 L39,18 L38,23 L27,27 L25,28 L34,26 L37,26 L43,24 L53,18 L59,19 L66,25 L85,35 L97,40 L102,45 L102,48 L82,56 L49,68 L47,69 L38,68 L32,66 L27,67 L37,71 L37,73 L26,78 L17,76 L-21,57 L-26,54 L-25,49 L-22,45 L-27,46 L-32,50 L-38,49 L-56,39 L-75,28 L-75,23 L-73,22 L-60,23 L-58,24 L-58,22 L-60,22 L-61,18 L-46,13 L-33,9 L-8,1 Z " fill="#33003B" transform="translate(84,56)"/>
<path d="M0,0 L2,0 L2,8 L10,21 L17,30 L19,60 L21,72 L26,76 L49,90 L54,93 L54,95 L59,97 L60,98 L63,89 L68,82 L69,86 L66,91 L71,86 L74,84 L72,91 L69,92 L69,99 L74,104 L80,108 L80,110 L84,112 L87,115 L92,117 L97,121 L101,125 L110,131 L115,134 L119,138 L119,87 L118,85 L121,86 L123,171 L125,172 L125,149 L138,148 L139,170 L140,169 L141,148 L142,148 L142,168 L159,155 L177,141 L184,136 L186,137 L181,143 L168,153 L150,167 L133,180 L129,180 L112,167 L99,157 L86,147 L69,134 L56,124 L43,114 L30,104 L14,92 L-9,76 L-28,63 L-33,59 L-35,49 L-36,32 L-34,25 L-33,25 L-32,38 L-27,40 L-13,49 L-6,53 L7,63 L13,67 L13,31 L10,25 L0,12 L-2,8 L-6,5 L-6,3 L-1,1 Z " fill="#2F002F" transform="translate(69,218)"/>
<path d="M0,0 L1,0 L1,23 L29,22 L39,21 L43,20 L41,51 L40,58 L49,51 L59,45 L64,42 L67,39 L71,39 L71,37 L82,30 L84,30 L86,26 L85,32 L83,46 L73,55 L59,66 L48,75 L29,88 L12,100 L-4,112 L-9,116 L-11,116 L-10,107 L-8,89 L-7,84 L-9,85 L-11,90 L-12,90 L-13,83 L-17,79 L-16,77 L-10,82 L-10,77 L-17,68 L-21,61 L-21,55 L-13,44 L-1,28 L13,27 L14,26 L0,25 Z " fill="#340143" transform="translate(276,228)"/>
<path d="M0,0 L4,1 L10,13 L13,20 L17,24 L17,41 L16,55 L14,61 L6,68 L-10,80 L-25,92 L-34,99 L-36,99 L-36,78 L-23,68 L-4,54 L7,47 L13,42 L9,44 L-6,53 L-22,65 L-34,75 L-37,75 L-38,72 L-39,47 L-41,47 L-41,73 L-44,78 L-49,78 L-53,75 L-53,22 L-40,21 L-39,38 L-38,38 L-37,21 L-32,15 L-17,7 Z " fill="#550173" transform="translate(247,287)"/>
<path d="M0,0 L5,2 L16,8 L32,16 L43,21 L53,25 L57,27 L57,29 L65,29 L68,30 L69,33 L69,93 L67,92 L67,90 L63,91 L53,88 L33,78 L12,66 L9,63 L9,61 L14,62 L21,66 L31,70 L49,78 L62,83 L64,83 L63,79 L44,70 L33,66 L14,56 L7,52 L4,49 L3,32 L2,30 L0,7 Z " fill="#677FFE" transform="translate(120,144)"/>
<path d="M0,0 L4,0 L4,14 L2,25 L1,41 L-1,48 L-6,52 L-16,57 L-18,59 L-25,62 L-36,67 L-52,74 L-57,76 L-58,81 L-48,78 L-33,70 L-24,66 L-14,65 L-13,63 L-11,63 L-11,61 L-9,61 L-10,66 L-27,77 L-60,93 L-62,93 L-62,95 L-65,95 L-64,33 L-63,29 L-50,27 L-40,21 L-5,4 Z " fill="#6D76FE" transform="translate(277,145)"/>
<path d="M0,0 L7,1 L18,7 L18,9 L14,9 L14,24 L12,35 L10,40 L8,39 L9,31 L10,17 L-6,27 L-16,31 L-26,37 L-36,41 L-45,41 L-48,67 L-50,100 L-51,104 L-43,102 L-28,97 L-19,94 L-16,95 L-17,98 L-38,106 L-49,109 L-52,109 L-56,129 L-57,154 L-42,154 L-44,157 L-58,158 L-65,168 L-67,167 L-66,161 L-62,156 L-60,132 L-58,114 L-56,109 L-58,109 L-57,102 L-56,100 L-54,74 L-52,61 L-51,44 L-65,53 L-102,71 L-109,75 L-119,75 L-121,126 L-122,141 L-125,140 L-125,112 L-124,71 L-139,71 L-138,95 L-137,142 L-126,142 L-125,146 L-140,146 L-139,167 L-139,204 L-129,207 L-129,210 L-139,210 L-138,263 L-135,265 L-130,266 L-128,261 L-127,235 L-124,234 L-123,263 L-116,259 L-106,250 L-87,237 L-73,228 L-73,231 L-83,239 L-94,246 L-110,258 L-122,267 L-123,288 L-126,290 L-126,267 L-129,268 L-139,268 L-139,291 L-142,290 L-144,205 L-147,202 L-151,201 L-151,198 L-153,197 L-148,198 L-142,202 L-143,77 L-144,74 L-146,74 L-146,72 L-144,72 L-143,68 L-140,65 L-137,64 L-136,62 L-141,61 L-149,58 L-150,55 L-144,56 L-135,59 L-134,61 L-127,60 L-113,55 L-94,45 L-75,35 L-69,34 L-69,32 L-65,30 L-63,28 L-64,33 L-67,36 L-83,44 L-117,60 L-122,62 L-125,62 L-125,65 L-120,67 L-116,70 L-110,69 L-60,44 L-53,40 L-51,40 L-52,36 L-58,32 L-58,30 L-60,30 L-60,28 L-49,26 L-45,26 L-45,28 L-50,30 L-47,33 L-41,36 L-34,35 L-15,25 L1,17 L9,12 L10,9 L6,7 L4,5 L-2,5 L-6,6 L-6,4 L-4,4 L-4,2 Z " fill="#22001D" transform="translate(333,99)"/>
<path d="M0,0 L5,3 L26,10 L51,18 L58,21 L57,25 L61,23 L67,23 L73,28 L72,32 L62,38 L46,46 L29,55 L22,56 L13,51 L13,48 L18,47 L18,45 L11,47 L3,47 L3,49 L5,49 L5,51 L9,53 L12,55 L12,59 L-21,76 L-47,89 L-53,90 L-62,84 L-62,81 L-41,72 L-16,60 L-3,53 L-1,49 L-4,52 L-6,50 L-3,47 L-14,44 L-32,37 L-47,32 L-56,28 L-63,26 L-63,24 L-65,23 L-62,23 L-61,19 L-52,14 L-48,14 L-48,16 L-52,19 L-54,19 L-54,24 L-41,29 L-15,39 L-2,39 L6,33 L7,29 L7,13 L3,5 L0,2 Z " fill="#310237" transform="translate(270,80)"/>
<path d="M0,0 L1,3 L7,4 L16,10 L20,13 L26,15 L26,17 L35,20 L35,22 L46,24 L50,26 L51,28 L59,31 L63,33 L63,87 L57,86 L41,77 L33,74 L24,70 L18,65 L9,53 L3,45 L2,37 L1,16 L0,10 Z " fill="#6C7FFE" transform="translate(126,211)"/>
<path d="M0,0 L2,0 L2,8 L1,11 L-2,38 L-6,55 L-16,68 L-20,73 L-27,76 L-38,81 L-50,85 L-52,86 L-58,86 L-56,49 L-53,23 L-50,22 L-43,22 L-31,17 L-17,9 L-10,6 Z " fill="#6288FE" transform="translate(340,117)"/>
<path d="M0,0 L4,0 L4,11 L2,20 L1,44 L-10,57 L-20,70 L-33,76 L-43,80 L-56,88 L-58,88 L-58,35 L-56,31 L-47,27 L-41,26 L-41,24 L-31,19 L-27,16 L-17,12 L-6,5 L-1,2 Z " fill="#6E77FE" transform="translate(270,212)"/>
<path d="M0,0 L2,0 L2,2 L7,3 L7,5 L16,8 L16,10 L25,13 L37,20 L43,22 L56,22 L58,57 L58,85 L51,85 L44,83 L44,81 L33,78 L26,75 L21,73 L14,61 L8,53 L6,50 L3,29 L1,11 L0,7 Z " fill="#6D76FE" transform="translate(59,115)"/>
<path d="M0,0 L8,0 L18,4 L34,11 L50,18 L53,21 L52,26 L25,39 L17,45 L0,45 L-4,46 L-15,38 L-30,32 L-41,26 L-43,24 L-42,20 L-32,14 L-12,5 Z " fill="#0CF7FD" transform="translate(195,52)"/>
<path d="M0,0 L10,0 L21,5 L24,7 L31,9 L42,12 L44,16 L44,21 L36,26 L9,37 L2,40 L-2,44 L-3,43 L-13,43 L-19,45 L-25,38 L-51,25 L-55,21 L-55,18 L-19,6 Z " fill="#0BF4FE" transform="translate(148,29)"/>
<path d="M0,0 L13,2 L22,4 L31,7 L40,10 L40,12 L49,13 L64,18 L62,22 L54,27 L35,37 L29,41 L27,41 L26,44 L14,43 L8,44 L4,38 L-6,35 L-13,32 L-28,26 L-31,24 L-31,22 L-33,22 L-33,15 L-17,7 L-1,1 Z " fill="#0CEEFC" transform="translate(244,29)"/>
<path d="M0,0 L8,0 L18,3 L25,6 L38,10 L46,13 L67,21 L66,24 L57,28 L51,32 L45,33 L45,35 L40,37 L30,44 L22,43 L-24,28 L-32,25 L-33,20 L-28,15 L-7,3 Z " fill="#7A4AF3" transform="translate(309,55)"/>
<path d="M0,0 L11,0 L20,1 L22,2 L35,3 L42,9 L48,17 L59,31 L58,36 L50,51 L46,56 L44,65 L37,61 L37,59 L32,57 L17,48 L6,41 L3,38 L1,26 Z " fill="#1EC8FE" transform="translate(86,252)"/>
<path d="M0,0 L9,1 L25,9 L35,14 L39,18 L38,23 L27,27 L-7,39 L-17,43 L-20,43 L-20,41 L-26,39 L-37,33 L-37,31 L-44,30 L-57,22 L-59,21 L-58,17 L-36,10 L-8,1 Z " fill="#6F63FC" transform="translate(84,56)"/>
<path d="M0,0 L21,0 L21,12 L18,34 L7,42 L-14,56 L-22,61 L-24,52 L-33,40 L-37,33 L-37,27 L-29,16 L-20,4 L-16,1 Z " fill="#0CF4FE" transform="translate(292,256)"/>
<path d="M0,0 L5,0 L9,16 L13,26 L13,35 L5,46 L-2,55 L-12,56 L-40,56 L-40,27 L-36,13 L-26,10 L-9,4 Z " fill="#0CF9FD" transform="translate(317,195)"/>
<path d="M0,0 L7,0 L10,1 L10,3 L17,4 L20,8 L27,11 L39,20 L48,32 L51,38 L51,75 L43,70 L27,58 L18,53 L5,45 L3,32 L2,31 L0,9 Z " fill="#6279FB" transform="translate(32,211)"/>
<path d="M0,0 L10,3 L34,11 L40,13 L41,16 L41,26 L43,26 L43,56 L33,56 L8,54 L1,48 L-8,34 L-9,27 L-3,13 Z " fill="#0EF9FE" transform="translate(79,194)"/>
<path d="M0,0 L9,3 L19,7 L19,9 L25,11 L39,18 L40,19 L40,71 L33,65 L24,60 L17,55 L12,50 L6,47 L0,42 L-3,39 L-7,36 L-7,34 L-11,32 L-12,31 L-12,24 L-8,23 L-6,14 L-3,7 Z " fill="#6D6DFE" transform="translate(149,286)"/>
<path d="M0,0 L4,1 L10,13 L13,20 L17,24 L17,31 L9,38 L7,38 L7,40 L2,42 L-17,55 L-30,64 L-35,67 L-37,66 L-36,19 L-30,14 L-14,6 Z " fill="#6B7AFE" transform="translate(247,287)"/>
<path d="M0,0 L8,1 L17,5 L19,7 L26,9 L38,11 L43,15 L52,28 L52,41 L49,52 L44,62 L38,61 L33,58 L23,53 L12,45 L5,37 L2,22 L0,9 Z " fill="#0EEEFE" transform="translate(22,158)"/>
<path d="M0,0 L4,0 L3,10 L-1,36 L-4,45 L-15,52 L-17,52 L-17,54 L-22,56 L-26,60 L-38,66 L-46,73 L-48,73 L-47,54 L-46,37 L-35,21 L-26,13 L-14,7 Z " fill="#6289FD" transform="translate(364,213)"/>
<path d="M0,0 L2,0 L1,12 L-3,32 L-5,42 L-8,47 L-9,51 L-18,55 L-34,63 L-39,66 L-41,66 L-45,54 L-50,44 L-50,33 L-39,16 L-33,13 L-18,11 L-18,9 L-9,5 Z " fill="#15E3FE" transform="translate(376,157)"/>
<path d="M0,0 L5,2 L13,6 L13,8 L18,10 L26,13 L35,18 L42,19 L44,24 L47,50 L47,69 L42,68 L33,65 L26,59 L12,49 L6,44 L1,15 Z " fill="#6571FC" transform="translate(11,91)"/>
<path d="M0,0 L2,0 L1,10 L-5,44 L-6,47 L-17,54 L-28,62 L-33,67 L-38,70 L-45,72 L-45,57 L-41,23 L-39,19 L-29,17 L-20,12 L-15,10 L-1,1 Z " fill="#667BFD" transform="translate(388,91)"/>
<path d="M0,0 L10,2 L18,6 L31,11 L40,15 L40,17 L47,19 L56,23 L68,28 L73,30 L72,33 L67,36 L65,40 L63,40 L63,42 L65,42 L67,45 L67,170 L63,168 L65,167 L65,113 L61,112 L52,108 L52,106 L40,104 L36,100 L28,97 L28,95 L21,93 L10,86 L3,83 L1,87 L1,77 L5,78 L20,89 L30,93 L31,91 L54,102 L63,103 L64,105 L64,43 L53,42 L53,40 L47,38 L32,32 L16,24 L4,17 L-4,13 L-4,18 L-5,18 L-5,11 L-2,10 L-1,12 L3,13 L3,15 L10,16 L15,19 L18,19 L-4,8 L-3,3 Z " fill="#20001D" transform="translate(124,131)"/>
<path d="M0,0 L7,0 L12,4 L15,9 L19,15 L20,18 L20,34 L18,39 L10,45 L-3,45 L-29,35 L-42,30 L-43,26 L-38,21 L-7,6 Z " fill="#0BFAFE" transform="translate(258,75)"/>
<path d="M0,0 L8,1 L26,7 L36,11 L45,14 L45,16 L47,16 L47,19 L31,27 L15,35 L12,36 L12,34 L2,34 L-2,36 L-7,33 L-33,22 L-39,18 L-38,15 L-23,9 Z " fill="#0DEBFE" transform="translate(196,6)"/>
<path d="M0,0 L2,1 L-10,6 L-23,11 L-41,18 L-43,18 L-43,20 L-34,23 L-25,27 L-12,34 L-2,38 L17,47 L22,49 L28,48 L69,28 L84,22 L86,22 L86,24 L77,28 L43,45 L33,49 L25,52 L20,51 L20,49 L13,48 L9,46 L4,47 L-4,43 L-14,39 L-14,37 L-23,34 L-42,26 L-51,23 L-55,24 L-57,26 L-58,30 L-52,32 L-35,41 L-39,42 L-47,38 L-51,37 L-51,35 L-56,34 L-59,33 L-57,42 L-55,65 L-54,67 L-53,84 L-47,89 L-28,98 L-21,102 L-9,106 L6,114 L7,118 L4,119 L-23,108 L-33,103 L-40,100 L-49,96 L-44,101 L-28,110 L-24,113 L-24,115 L-28,114 L-35,111 L-49,101 L-53,99 L-52,109 L-52,123 L-54,123 L-55,109 L-57,107 L-58,95 L-58,82 L-59,81 L-62,48 L-62,22 L-57,20 L-57,18 L-66,16 L-69,13 L-62,12 L-53,15 L-47,15 L-28,8 L-20,5 L-10,3 L-6,1 Z " fill="#2A0124" transform="translate(178,109)"/>
<path d="M0,0 L6,1 L13,7 L32,17 L44,22 L49,27 L49,30 L36,35 L19,39 L3,45 L-5,45 L-10,40 L-14,38 L-14,21 L-13,13 L-10,9 L-7,9 L-5,3 Z " fill="#0CF8FE" transform="translate(137,74)"/>
<path d="M0,0 L5,2 L16,8 L32,16 L43,21 L53,25 L57,27 L57,29 L65,29 L68,30 L69,33 L69,93 L67,92 L67,90 L63,91 L53,88 L33,78 L12,66 L9,63 L9,61 L14,62 L21,66 L31,70 L49,78 L62,83 L64,83 L63,78 L66,77 L66,63 L65,59 L64,43 L62,43 L62,41 L60,41 L60,39 L56,37 L50,35 L42,33 L40,32 L40,30 L36,29 L27,25 L21,27 L15,29 L12,36 L10,36 L11,46 L15,54 L17,52 L18,56 L20,56 L20,58 L11,55 L4,49 L3,32 L2,30 L0,7 Z M18,28 Z " fill="#746AFD" transform="translate(120,144)"/>
<path d="M0,0 L4,0 L4,14 L2,25 L1,41 L-1,48 L-6,52 L-11,54 L-9,50 L-7,50 L-7,48 L-5,48 L-4,45 L-4,28 L-5,21 L-5,17 L-7,17 L-7,15 L-17,19 L-21,20 L-22,23 L-29,26 L-34,27 L-42,30 L-43,32 L-46,33 L-48,36 L-51,36 L-51,38 L-56,40 L-58,46 L-59,71 L-57,71 L-56,69 L-56,71 L-48,70 L-48,68 L-40,67 L-39,64 L-29,62 L-29,60 L-24,59 L-24,57 L-19,57 L-16,57 L-18,59 L-25,62 L-36,67 L-52,74 L-57,76 L-58,81 L-48,78 L-33,70 L-24,66 L-14,65 L-13,63 L-11,63 L-11,61 L-9,61 L-10,66 L-27,77 L-60,93 L-62,93 L-62,95 L-65,95 L-64,33 L-63,29 L-50,27 L-40,21 L-5,4 Z " fill="#7566FC" transform="translate(277,145)"/>
<path d="M0,0 L1,3 L7,4 L16,10 L20,13 L26,15 L26,17 L35,20 L35,22 L46,24 L50,26 L51,28 L59,31 L63,33 L63,87 L57,86 L41,77 L33,74 L24,70 L18,65 L9,53 L3,45 L2,37 L1,16 L0,10 Z M11,13 L9,14 L9,16 L7,16 L7,21 L6,23 L9,41 L13,45 L14,48 L20,53 L23,56 L27,60 L29,60 L30,63 L39,67 L46,67 L46,69 L53,70 L56,65 L57,56 L57,46 L56,44 L54,44 L52,38 L50,35 L41,30 L33,24 L31,24 L31,22 L25,19 L21,19 L21,17 L15,16 L14,13 Z " fill="#716AFE" transform="translate(126,211)"/>
<path d="M0,0 L2,1 L0,5 L-3,5 L-5,9 L-7,34 L-3,35 L2,40 L10,40 L29,33 L40,31 L36,34 L3,46 L1,47 L-8,46 L-20,41 L-31,35 L-41,31 L-53,25 L-56,23 L-55,20 L-44,17 L-35,13 L-11,5 L-3,2 Z " fill="#814FFC" transform="translate(130,78)"/>
<path d="M0,0 L3,0 L1,14 L-7,60 L-14,104 L-26,115 L-36,123 L-51,135 L-74,151 L-94,165 L-112,179 L-122,187 L-124,186 L-121,181 L-115,176 L-114,171 L-112,147 L-109,141 L-107,141 L-108,153 L-109,164 L-111,173 L-95,161 L-78,149 L-58,135 L-47,127 L-34,116 L-24,108 L-18,103 L-16,89 L-15,87 L-12,67 L-8,42 L-21,47 L-35,55 L-42,59 L-49,67 L-56,77 L-59,77 L-57,73 L-47,59 L-47,50 L-53,33 L-55,21 L-53,17 L-49,16 L-49,30 L-43,42 L-41,48 L-41,52 L-25,43 L-12,38 L-9,37 L-8,31 L-5,25 L-1,1 Z " fill="#2C0430" transform="translate(376,171)"/>
<path d="M0,0 L2,0 L2,8 L1,11 L-2,38 L-6,55 L-16,68 L-20,73 L-27,76 L-38,81 L-50,85 L-52,86 L-58,86 L-56,49 L-53,23 L-50,22 L-43,22 L-31,17 L-17,9 L-10,6 Z M-23,24 L-36,28 L-43,33 L-44,36 L-49,41 L-49,45 L-51,45 L-53,60 L-54,61 L-55,83 L-29,75 L-22,70 L-15,61 L-15,59 L-13,59 L-8,52 L-6,47 L-5,31 L-6,29 L-8,29 L-10,24 Z " fill="#7662FD" transform="translate(340,117)"/>
<path d="M0,0 L5,3 L26,10 L51,18 L58,21 L54,25 L45,29 L17,43 L14,44 L-1,44 L-8,41 L-8,40 L0,38 L6,33 L7,29 L7,13 L3,5 L0,2 Z " fill="#8048F8" transform="translate(270,80)"/>
<path d="M0,0 L16,0 L26,5 L29,6 L32,17 L32,21 L35,22 L35,27 L29,30 L21,30 L19,29 L10,28 L10,27 L-6,24 L-22,19 L-25,17 L-24,11 L-15,5 L-9,5 L-9,3 L0,2 Z " fill="#7168FD" transform="translate(301,62)"/>
<path d="M0,0 L17,0 L17,2 L23,2 L26,4 L29,9 L34,12 L34,14 L38,15 L43,21 L42,31 L39,32 L37,36 L33,37 L20,37 L20,35 L14,33 L8,29 L8,27 L3,25 L-3,15 L-3,3 Z " fill="#08FAFE" transform="translate(98,262)"/>
<path d="M0,0 L2,0 L2,2 L7,3 L7,5 L16,8 L16,10 L25,13 L37,20 L43,22 L56,22 L58,57 L58,85 L51,85 L44,83 L44,81 L33,78 L26,75 L21,73 L14,61 L8,53 L6,50 L3,29 L1,11 L0,7 Z M16,21 L12,22 L13,27 L11,27 L9,31 L10,47 L12,51 L14,51 L14,58 L16,58 L17,63 L19,63 L20,68 L24,72 L28,74 L42,77 L46,79 L55,78 L54,60 L53,50 L51,50 L51,40 L48,31 L46,29 L36,26 L35,24 L21,21 Z " fill="#7561FB" transform="translate(59,115)"/>
<path d="M0,0 L4,0 L4,11 L2,20 L1,44 L-10,57 L-13,60 L-14,57 L-11,56 L-11,54 L-9,54 L-8,46 L-5,38 L-4,30 L-4,21 L-6,19 L-16,18 L-16,21 L-18,22 L-24,22 L-26,26 L-29,26 L-29,28 L-39,32 L-54,35 L-55,77 L-47,74 L-39,72 L-38,69 L-26,68 L-22,66 L-19,66 L-19,64 L-17,64 L-17,62 L-15,62 L-17,66 L-22,71 L-33,76 L-43,80 L-56,88 L-58,88 L-58,35 L-56,31 L-47,27 L-41,26 L-41,24 L-31,19 L-27,16 L-17,12 L-6,5 L-1,2 Z " fill="#7765FC" transform="translate(270,212)"/>
<path d="M0,0 L10,0 L21,5 L24,7 L31,9 L42,12 L44,16 L44,21 L36,26 L9,37 L6,36 L10,32 L11,29 L11,18 L9,18 L6,12 L2,10 L-6,11 L-9,12 L-25,13 L-44,17 L-50,19 L-55,19 L-53,17 L-13,4 Z " fill="#7B46E6" transform="translate(148,29)"/>
<path d="M0,0 L21,0 L21,12 L18,34 L7,42 L-14,56 L-22,61 L-24,52 L-33,40 L-37,33 L-37,27 L-29,16 L-20,4 L-16,1 Z M3,5 L-14,8 L-15,10 L-18,11 L-24,19 L-29,24 L-31,27 L-31,34 L-23,45 L-22,46 L-14,46 L-7,43 L1,38 L8,32 L8,30 L10,30 L13,20 L14,16 L14,8 L12,5 Z " fill="#36A6FE" transform="translate(292,256)"/>
<path d="M0,0 L10,3 L34,11 L40,13 L41,16 L41,26 L43,26 L43,56 L33,56 L8,54 L1,48 L-8,34 L-9,27 L-3,13 Z M6,13 L-1,18 L-4,26 L-4,34 L-2,34 L-2,41 L3,43 L4,46 L6,46 L6,48 L8,49 L19,49 L35,47 L38,43 L38,34 L37,31 L35,31 L32,22 L29,18 L22,17 L22,14 L17,13 Z " fill="#2DC7FD" transform="translate(79,194)"/>
<path d="M0,0 L13,2 L22,4 L31,7 L40,10 L40,12 L49,13 L64,18 L63,21 L62,19 L49,18 L42,16 L29,13 L28,12 L19,11 L16,9 L4,10 L1,13 L-1,13 L-2,17 L-6,21 L-5,28 L-2,30 L-2,32 L2,34 L3,37 L-6,35 L-13,32 L-28,26 L-31,24 L-31,22 L-33,22 L-33,15 L-17,7 L-1,1 Z " fill="#6671F6" transform="translate(244,29)"/>
<path d="M0,0 L13,0 L15,5 L17,5 L18,10 L17,23 L13,31 L10,35 L8,35 L6,39 L3,42 L3,37 L6,37 L7,30 L8,27 L6,24 L4,22 L4,18 L2,18 L0,15 L-7,18 L-10,18 L-10,20 L-11,23 L-12,21 L-20,26 L-25,35 L-27,43 L-29,43 L-28,55 L-22,55 L-25,57 L-32,59 L-31,37 L-30,36 L-28,21 L-26,21 L-25,15 L-21,12 L-20,9 L-13,4 Z " fill="#6A77FE" transform="translate(317,141)"/>
<path d="M0,0 L7,1 L12,3 L13,6 L23,9 L25,12 L28,13 L32,21 L31,27 L29,33 L23,35 L20,38 L16,37 L7,33 L6,31 L-4,28 L-7,25 L-6,16 L-2,6 Z " fill="#687EFE" transform="translate(151,290)"/>
<path d="M0,0 L1,3 L2,6 L4,6 L6,5 L7,10 L14,9 L14,6 L16,6 L17,4 L20,9 L20,11 L23,12 L22,16 L24,17 L26,29 L29,36 L29,42 L11,42 L7,41 L7,39 L5,39 L-3,25 L-5,20 L-6,19 L-6,7 Z M7,6 Z " fill="#6686FE" transform="translate(82,148)"/>
<path d="M0,0 L11,0 L13,1 L11,70 L9,72 L0,72 L-1,70 L-2,25 L-2,1 Z " fill="#8303D4" transform="translate(196,169)"/>
<path d="M0,0 L2,0 L1,12 L-3,32 L-5,42 L-8,47 L-9,51 L-18,55 L-34,63 L-39,66 L-41,66 L-45,54 L-50,44 L-50,33 L-39,16 L-33,13 L-18,11 L-18,9 L-9,5 Z M-33,21 L-43,29 L-45,30 L-47,37 L-48,38 L-48,45 L-46,49 L-44,49 L-42,54 L-38,60 L-34,59 L-21,51 L-13,46 L-9,43 L-9,40 L-7,40 L-6,30 L-7,27 L-9,27 L-9,24 L-11,24 L-11,22 L-17,21 Z " fill="#43A4FE" transform="translate(376,157)"/>
<path d="M0,0 L10,2 L18,6 L31,11 L40,15 L40,17 L47,19 L56,23 L68,28 L73,30 L72,33 L67,36 L65,39 L59,39 L48,33 L38,29 L-4,8 L-3,3 Z " fill="#7B00AB" transform="translate(124,131)"/>
<path d="M0,0 L8,1 L17,5 L19,7 L26,9 L38,11 L43,15 L52,28 L52,41 L49,52 L44,62 L38,61 L33,58 L23,53 L12,45 L5,37 L2,22 L0,9 Z M14,17 L10,21 L10,37 L16,47 L21,49 L29,50 L33,54 L35,55 L41,55 L47,50 L49,47 L50,42 L50,29 L48,29 L46,25 L40,18 L32,17 Z " fill="#637AFC" transform="translate(22,158)"/>
<path d="M0,0 L4,1 L8,10 L6,14 L4,20 L0,21 L1,27 L-2,30 L-5,35 L-21,37 L-25,37 L-25,35 L-27,35 L-25,29 L-29,30 L-29,32 L-31,32 L-29,22 L-27,20 L-27,17 L-24,10 L-21,7 L-16,6 L-16,8 L-10,6 L-2,4 Z " fill="#6B7FFE" transform="translate(255,238)"/>
<path d="M0,0 L5,2 L9,5 L9,9 L-24,26 L-50,39 L-56,40 L-65,34 L-65,31 L-44,22 L-19,10 L-7,4 Z " fill="#72009F" transform="translate(273,130)"/>
<path d="M0,0 L1,4 L-1,14 L-3,21 L-17,33 L-27,41 L-37,49 L-46,55 L-47,52 L-44,39 L-41,34 L-46,35 L-46,27 L-45,27 L-45,32 L-36,25 L-26,19 L-21,16 L-18,13 L-14,13 L-14,11 L-3,4 L-1,4 Z " fill="#6F04A4" transform="translate(361,254)"/>
<path d="M0,0 L4,0 L3,10 L-1,36 L-4,45 L-15,52 L-17,52 L-17,54 L-22,56 L-26,60 L-38,66 L-46,73 L-48,73 L-47,54 L-46,37 L-41,29 L-40,29 L-40,34 L-42,34 L-42,36 L-44,36 L-43,50 L-42,55 L-38,54 L-32,51 L-30,51 L-30,49 L-20,46 L-16,42 L-10,38 L-5,29 L-3,11 L-2,8 L-12,9 L-16,11 L-20,10 L-5,2 Z " fill="#6A50E8" transform="translate(364,213)"/>
<path d="M0,0 L14,0 L14,16 L13,57 L10,58 L10,60 L3,59 L0,57 Z " fill="#8802D2" transform="translate(194,246)"/>
<path d="M0,0 L3,0 L2,14 L0,19 L-19,32 L-35,44 L-40,48 L-42,48 L-41,39 L-40,28 L-31,21 L-13,9 L-8,7 L-3,2 Z " fill="#6B0399" transform="translate(307,296)"/>
<path d="M0,0 L5,0 L9,16 L12,25 L9,24 L9,20 L5,18 L1,11 L-7,11 L-18,14 L-28,19 L-30,21 L-33,33 L-33,43 L-29,48 L-19,51 L0,51 L-2,55 L-12,56 L-40,56 L-40,27 L-36,13 L-26,10 L-9,4 Z " fill="#429AF9" transform="translate(317,195)"/>
<path d="M0,0 L4,1 L15,8 L25,13 L30,18 L40,25 L44,29 L45,47 L41,45 L24,32 L11,22 L1,14 Z " fill="#732FCB" transform="translate(89,297)"/>
<path d="M0,0 L4,1 L5,19 L11,26 L20,38 L25,44 L31,47 L39,50 L55,58 L59,61 L59,65 L64,66 L64,68 L55,65 L45,60 L45,58 L38,56 L26,51 L23,62 L15,73 L12,74 L14,69 L16,61 L21,51 L20,46 L7,31 L1,23 L-2,21 L-15,20 L-17,19 L-37,17 L-38,12 L-11,14 L0,16 Z " fill="#2F0241" transform="translate(123,235)"/>
<path d="M0,0 L8,3 L14,6 L14,8 L29,11 L34,15 L34,17 L36,17 L36,19 L38,19 L39,21 L40,35 L41,39 L41,53 L40,54 L33,53 L20,47 L24,46 L25,47 L34,47 L36,44 L35,37 L34,34 L32,34 L32,31 L30,30 L29,20 L23,21 L20,18 L20,16 L13,17 L12,13 L10,12 L9,14 L6,14 L4,15 L2,13 L-4,8 L-4,6 L-8,9 L-3,10 L-6,13 L-11,13 L-13,22 L-10,28 L-11,31 L-14,26 L-16,22 L-16,12 L-14,12 L-12,5 L-10,3 L-5,2 Z M-8,4 Z " fill="#6F72FD" transform="translate(146,168)"/>
<path d="M0,0 L2,0 L2,9 L0,9 L0,13 L-3,13 L-3,15 L-17,26 L-23,31 L-28,36 L-31,40 L-34,40 L-35,44 L-45,46 L-45,31 L-32,21 L-13,7 L-4,1 Z " fill="#8045E6" transform="translate(256,334)"/>
<path d="M0,0 L11,0 L26,5 L36,9 L56,16 L64,19 L71,22 L70,25 L65,24 L66,21 L58,20 L51,18 L51,16 L42,16 L36,13 L35,12 L27,11 L27,9 L13,8 L13,4 L-3,4 L-13,7 L-25,12 L-30,14 L-39,15 L-39,18 L-44,20 L-47,24 L-48,25 L-41,26 L-40,29 L-33,31 L-32,33 L-23,36 L-16,37 L-11,39 L-8,41 L-8,44 L-4,46 L-4,48 L0,49 L1,52 L-5,50 L-22,42 L-38,35 L-44,31 L-57,26 L-61,24 L-61,22 L-46,16 L-31,10 L-6,1 Z " fill="#7E46F3" transform="translate(196,105)"/>
<path d="M0,0 L9,1 L19,6 L19,7 L1,6 L1,5 L-13,5 L-13,7 L-26,13 L-28,13 L-28,15 L-36,21 L-33,27 L-28,28 L-25,31 L-25,34 L-23,34 L-19,38 L-12,38 L4,32 L12,31 L10,33 L-7,39 L-17,43 L-20,43 L-20,41 L-26,39 L-37,33 L-37,31 L-44,30 L-57,22 L-59,21 L-58,17 L-36,10 L-8,1 Z " fill="#7D4FF4" transform="translate(84,56)"/>
<path d="M0,0 L1,3 L7,4 L16,10 L20,13 L26,15 L26,17 L35,20 L35,22 L46,24 L50,26 L51,28 L59,31 L57,32 L44,28 L44,26 L38,26 L32,22 L27,20 L27,18 L22,17 L22,15 L17,14 L17,12 L11,11 L6,10 L6,34 L9,43 L13,47 L18,56 L21,59 L25,66 L34,68 L40,71 L52,76 L61,78 L62,33 L63,33 L63,87 L57,86 L41,77 L33,74 L24,70 L18,65 L9,53 L3,45 L2,37 L1,16 L0,10 Z " fill="#764CF8" transform="translate(126,211)"/>
<path d="M0,0 L7,1 L19,6 L24,11 L29,13 L36,22 L36,30 L34,35 L32,42 L28,41 L23,37 L19,30 L11,24 L8,14 L5,13 L-1,6 Z " fill="#608CFD" transform="translate(45,222)"/>
<path d="M0,0 L2,0 L2,17 L0,30 L-2,56 L-5,65 L-3,65 L-6,88 L-8,112 L-9,112 L-9,89 L-7,80 L-6,69 L-10,69 L-11,72 L-21,78 L-26,80 L-22,75 L-24,74 L-13,67 L-12,63 L-14,63 L-14,65 L-16,65 L-17,68 L-27,69 L-50,80 L-58,83 L-61,83 L-61,78 L-59,76 L-49,72 L-30,64 L-25,61 L-20,59 L-16,56 L-9,53 L-4,49 L-3,43 L-2,27 L0,16 L1,2 L-1,1 Z " fill="#3A0358" transform="translate(280,143)"/>
<path d="M0,0 L8,1 L14,5 L22,8 L38,16 L44,19 L58,24 L58,26 L47,31 L38,29 L0,10 L-5,7 L-4,2 Z " fill="#7800AC" transform="translate(63,103)"/>
<path d="M0,0 L4,2 L16,9 L16,11 L20,13 L37,25 L43,31 L46,41 L46,44 L41,43 L26,32 L4,17 L1,14 L0,9 Z " fill="#5D0281" transform="translate(38,261)"/>
<path d="M0,0 L6,0 L10,3 L9,7 L-1,13 L-17,21 L-34,30 L-41,31 L-50,26 L-51,24 L-38,20 L-30,16 L-28,16 L-28,14 L-26,14 L-26,12 L-9,3 Z " fill="#7B00A6" transform="translate(333,105)"/>
<path d="M0,0 L14,0 L30,6 L37,8 L42,11 L46,13 L46,15 L51,17 L53,19 L52,22 L53,24 L50,24 L48,22 L45,24 L44,28 L39,31 L35,34 L31,35 L17,34 L17,33 L27,31 L31,30 L30,25 L28,24 L25,13 L25,9 L21,8 L12,4 L-4,3 L-3,6 L-13,6 L-13,8 L-17,7 L-7,1 Z " fill="#785DFD" transform="translate(305,59)"/>
<path d="M0,0 L1,0 L1,16 L-2,34 L-14,45 L-24,53 L-39,65 L-62,81 L-82,95 L-100,109 L-110,117 L-112,116 L-109,111 L-103,106 L-102,101 L-100,77 L-97,71 L-95,71 L-96,83 L-97,94 L-99,103 L-83,91 L-66,79 L-46,65 L-35,57 L-22,46 L-12,38 L-6,33 L-4,19 L-3,17 L-1,1 Z " fill="#2C002B" transform="translate(364,241)"/>
<path d="M0,0 L2,0 L2,8 L1,11 L-2,38 L-3,38 L-3,22 L-1,7 L-3,7 L-3,5 L-8,7 L-11,11 L-19,15 L-21,15 L-21,17 L-23,17 L-23,19 L-37,25 L-40,25 L-40,27 L-48,29 L-49,35 L-51,35 L-52,43 L-53,44 L-54,82 L-29,74 L-23,70 L-15,59 L-13,59 L-13,64 L-20,73 L-27,76 L-38,81 L-50,85 L-52,86 L-58,86 L-56,49 L-53,23 L-50,22 L-43,22 L-31,17 L-17,9 L-10,6 Z " fill="#7741E3" transform="translate(340,117)"/>
<path d="M0,0 L14,1 L20,5 L23,8 L22,13 L11,17 L2,20 L-14,21 L-17,17 L-16,10 L-11,5 L-5,1 Z " fill="#5B87FD" transform="translate(100,66)"/>
<path d="M0,0 L7,4 L18,12 L27,19 L39,23 L39,13 L40,13 L40,18 L42,18 L42,29 L43,32 L46,31 L47,28 L49,33 L48,34 L48,39 L41,33 L29,31 L21,28 L16,25 L3,21 L2,25 L-1,6 Z " fill="#340034" transform="translate(19,137)"/>
<path d="M0,0 L11,0 L20,1 L22,2 L35,3 L42,9 L41,11 L36,8 L7,7 L7,28 L10,36 L18,44 L18,46 L23,47 L26,50 L33,53 L38,56 L43,57 L44,53 L48,49 L53,41 L55,42 L49,52 L46,56 L44,65 L37,61 L37,59 L32,57 L17,48 L6,41 L3,38 L1,26 Z " fill="#7442F9" transform="translate(86,252)"/>
<path d="M0,0 L7,0 L12,5 L7,6 L6,7 L-2,8 L-7,13 L-12,16 L-22,21 L-26,22 L-28,30 L-20,31 L-5,38 L-5,41 L0,43 L10,44 L10,45 L-3,45 L-29,35 L-42,30 L-43,26 L-38,21 L-7,6 Z " fill="#13E9F7" transform="translate(258,75)"/>
<path d="M0,0 L7,2 L17,10 L22,14 L27,16 L32,21 L44,29 L44,42 L39,41 L34,35 L30,33 L25,28 L14,21 L14,19 L5,16 L0,11 L-1,8 L-3,7 L-3,2 Z " fill="#7644DD" transform="translate(145,337)"/>
<path d="M0,0 L18,0 L26,1 L32,9 L13,9 L5,12 L4,14 L6,15 L5,20 L6,25 L10,25 L10,27 L14,28 L17,31 L29,31 L33,28 L35,25 L35,30 L29,37 L27,38 L21,38 L16,35 L15,33 L7,32 L1,29 L-4,20 L-4,4 Z " fill="#17D7FE" transform="translate(36,175)"/>
<path d="M0,0 L1,0 L2,54 L4,50 L5,52 L15,49 L30,41 L39,37 L49,36 L50,34 L52,34 L52,32 L54,32 L53,37 L36,48 L3,64 L1,64 L1,66 L-2,66 L-1,4 Z " fill="#8B31E0" transform="translate(214,174)"/>
<path d="M0,0 L13,1 L14,5 L17,5 L17,12 L14,15 L13,18 L10,18 L10,20 L7,20 L7,22 L2,25 L-5,24 L-8,21 L-8,19 L-13,17 L-14,16 L-14,9 L-12,6 L-9,5 L-7,1 Z " fill="#0DF7FE" transform="translate(344,187)"/>
<path d="M0,0 L9,3 L19,7 L19,8 L11,7 L6,5 L2,5 L-1,14 L-4,19 L-6,24 L-5,30 L-1,34 L4,36 L12,42 L21,48 L21,50 L23,50 L25,55 L29,55 L32,60 L38,63 L38,18 L40,19 L40,71 L33,65 L24,60 L17,55 L12,50 L6,47 L0,42 L-3,39 L-7,36 L-7,34 L-11,32 L-12,31 L-12,24 L-8,23 L-6,14 L-3,7 Z " fill="#702ACE" transform="translate(149,286)"/>
<path d="M0,0 L2,0 L1,10 L-5,44 L-7,47 L-6,36 L-5,24 L-7,16 L-14,16 L-15,17 L-23,18 L-30,20 L-37,21 L-38,47 L-40,53 L-41,65 L-33,65 L-35,69 L-45,72 L-45,57 L-41,23 L-39,19 L-29,17 L-20,12 L-15,10 L-1,1 Z " fill="#6F55E5" transform="translate(388,91)"/>
<path d="M0,0 L4,0 L4,14 L2,25 L1,41 L-1,48 L-6,52 L-11,54 L-9,50 L-7,50 L-7,48 L-5,48 L-3,44 L-1,20 L-1,11 L-11,12 L-16,16 L-19,16 L-20,19 L-32,22 L-38,23 L-38,25 L-48,30 L-59,32 L-60,35 L-60,71 L-58,76 L-59,80 L-61,85 L-62,85 L-62,29 L-50,27 L-40,21 L-5,4 Z " fill="#7B3FED" transform="translate(277,145)"/>
<path d="M0,0 L11,0 L10,45 L7,53 L0,53 Z " fill="#8200C4" transform="translate(195,310)"/>
<path d="M0,0 L4,1 L10,13 L13,20 L17,24 L17,31 L9,38 L7,38 L7,40 L2,42 L-17,55 L-30,64 L-35,67 L-37,66 L-36,19 L-30,14 L-14,6 Z M-4,4 L-8,7 L-18,11 L-28,16 L-33,18 L-34,19 L-34,61 L-28,60 L-24,57 L-24,55 L-20,53 L-12,47 L6,35 L13,29 L12,22 L7,15 L3,7 L1,4 Z " fill="#782EE2" transform="translate(247,287)"/>
<path d="M0,0 L10,2 L23,10 L25,12 L27,21 L28,22 L28,30 L27,31 L18,31 L16,26 L12,26 L8,22 L8,19 L6,19 L6,16 L2,15 L2,11 L0,11 L-2,5 L-2,1 Z " fill="#568FFE" transform="translate(27,124)"/>
<path d="M0,0 L4,1 L1,4 L-6,7 L-13,7 L-21,11 L-26,12 L-26,25 L-18,23 L-19,29 L-16,29 L-16,32 L-12,30 L-9,30 L-9,32 L-3,32 L-1,34 L-1,37 L2,37 L3,35 L4,38 L9,38 L9,40 L14,40 L10,43 L1,42 L-11,37 L-22,31 L-32,27 L-44,21 L-47,19 L-46,16 L-35,13 L-26,9 L-2,1 Z " fill="#8344FA" transform="translate(121,82)"/>
<path d="M0,0 L10,0 L8,21 L2,31 L-5,36 L-7,36 L-8,39 L-18,41 L-18,43 L-28,48 L-31,45 L-32,42 L-32,28 L-30,28 L-30,36 L-25,37 L-22,38 L-18,34 L-12,35 L-12,30 L-7,29 L-3,22 L1,23 L3,19 L5,19 L4,12 L6,12 L5,5 L-3,5 L-4,7 L-11,8 L-19,15 L-25,17 L-22,12 L-14,5 L-10,3 L-2,1 Z " fill="#6669F7" transform="translate(352,221)"/>
<path d="M0,0 L7,1 L8,2 L17,3 L26,6 L37,8 L38,9 L51,11 L50,15 L46,17 L46,14 L24,11 L-4,11 L-8,13 L-8,25 L-7,29 L-13,24 L-18,18 L-18,13 L-13,8 L-12,5 L-7,1 Z " fill="#37AFFD" transform="translate(255,37)"/>
<path d="M0,0 L8,1 L26,7 L36,11 L45,14 L45,15 L32,15 L15,13 L15,11 L-2,12 L-7,13 L-29,14 L-34,16 L-38,15 L-23,9 Z " fill="#31A4FE" transform="translate(196,6)"/>
<path d="M0,0 L7,0 L10,1 L10,3 L17,4 L20,8 L27,11 L25,12 L16,10 L7,5 L2,4 L5,27 L5,33 L8,34 L15,42 L22,48 L26,52 L33,55 L38,60 L38,62 L42,64 L49,68 L50,38 L51,38 L51,75 L43,70 L27,58 L18,53 L5,45 L3,32 L2,31 L0,9 Z " fill="#712ECD" transform="translate(32,211)"/>
<path d="M0,0 L13,2 L22,4 L23,6 L7,4 L4,3 L3,7 L-1,10 L-4,10 L-4,12 L-8,13 L-8,15 L-14,16 L-19,15 L-20,22 L-14,24 L-14,27 L-11,27 L-10,30 L-1,34 L0,36 L-7,34 L-26,27 L-31,24 L-31,22 L-33,22 L-33,15 L-17,7 L-1,1 Z " fill="#7549E3" transform="translate(244,29)"/>
<path d="M0,0 L21,0 L21,12 L18,34 L7,42 L-14,56 L-22,61 L-24,52 L-25,50 L-21,51 L-21,54 L-15,54 L-15,52 L-9,49 L-7,49 L-7,47 L0,43 L5,38 L12,32 L14,26 L14,7 L12,5 L-1,5 L-14,7 L-20,10 L-25,12 L-21,5 L-16,1 Z " fill="#5D6CFC" transform="translate(292,256)"/>
<path d="M0,0 L9,0 L11,3 L11,11 L8,23 L7,25 L5,25 L3,29 L-6,36 L-11,39 L-17,41 L-25,41 L-31,33 L-21,32 L-16,29 L-6,26 L-3,22 L-1,22 L0,19 L4,19 L5,14 L6,5 L-6,5 L-18,6 L-17,3 Z " fill="#0EE1FE" transform="translate(295,261)"/>
<path d="M0,0 L1,0 L2,5 L2,23 L26,15 L35,12 L38,13 L37,16 L16,24 L5,27 L2,27 L-2,47 L-3,72 L12,72 L10,75 L-4,76 L-11,86 L-13,85 L-12,79 L-8,74 L-6,50 L-4,32 L-2,27 L-4,27 L-3,20 L-2,18 Z " fill="#200019" transform="translate(279,181)"/>
<path d="M0,0 L7,0 L15,4 L17,6 L27,10 L36,14 L37,16 L47,20 L46,24 L41,28 L35,27 L17,17 L-2,6 L-2,1 Z " fill="#72009E" transform="translate(11,78)"/>
<path d="M0,0 L5,2 L13,6 L13,8 L18,10 L26,13 L35,18 L42,19 L44,24 L47,50 L47,69 L43,68 L46,68 L44,49 L43,33 L41,33 L39,28 L36,24 L31,22 L30,19 L23,18 L21,15 L12,14 L6,14 L7,31 L8,32 L9,41 L10,46 L12,46 L11,48 L6,44 L1,15 Z " fill="#7440DD" transform="translate(11,91)"/>
<path d="M0,0 L2,1 L-2,6 L-7,9 L-14,11 L-15,13 L-17,13 L-18,55 L-10,52 L-2,50 L-1,47 L11,46 L15,44 L18,44 L18,42 L20,42 L20,40 L22,40 L20,44 L15,49 L4,54 L-6,58 L-19,66 L-21,66 L-21,13 L-19,9 L-10,5 L-4,4 L-4,2 Z " fill="#7C40F0" transform="translate(233,234)"/>
<path d="M0,0 L4,0 L4,2 L-1,4 L-4,5 L-5,12 L-6,20 L-5,29 L-2,29 L-1,35 L8,33 L15,33 L15,31 L24,28 L25,26 L30,24 L35,18 L36,22 L34,22 L34,24 L32,26 L31,30 L28,30 L28,32 L26,32 L26,34 L19,37 L7,38 L4,41 L-3,44 L-10,45 L-10,5 L-7,2 Z M-6,29 Z " fill="#716EFE" transform="translate(225,244)"/>
<path d="M0,0 L14,6 L21,9 L32,15 L42,19 L61,28 L66,30 L72,29 L113,9 L128,3 L130,3 L130,5 L121,9 L87,26 L77,30 L69,33 L64,32 L64,30 L57,29 L53,27 L48,28 L40,24 L30,20 L30,18 L21,15 L2,7 L-10,3 L-6,2 L1,4 Z " fill="#2F0038" transform="translate(134,128)"/>
<path d="M0,0 L9,0 L14,3 L14,5 L21,6 L23,9 L28,11 L32,16 L32,20 L34,20 L36,36 L36,41 L34,37 L31,25 L26,20 L23,16 L18,14 L7,13 L3,16 L1,16 L1,26 L5,34 L5,36 L7,36 L6,38 L3,36 L3,33 L1,33 L-1,28 L-2,19 L-3,18 L-3,1 Z " fill="#6F6AFD" transform="translate(20,104)"/>
<path d="M0,0 L17,0 L17,2 L23,2 L26,4 L26,6 L22,4 L16,3 L7,3 L4,4 L3,14 L5,18 L7,18 L12,23 L20,29 L37,29 L40,25 L39,20 L38,16 L43,21 L42,31 L39,32 L37,36 L33,37 L20,37 L20,35 L14,33 L8,29 L8,27 L3,25 L-3,15 L-3,3 Z " fill="#0DEDFE" transform="translate(98,262)"/>
<path d="M0,0 L7,1 L10,2 L10,7 L-8,17 L-25,27 L-29,28 L-36,25 L-37,21 L-27,17 L-25,17 L-25,15 L-17,10 L-15,10 L-15,8 L-6,4 Z " fill="#7B00A5" transform="translate(381,79)"/>
<path d="M0,0 L8,0 L18,4 L25,7 L21,9 L19,8 L19,6 L12,7 L8,6 L-2,9 L-9,12 L-27,18 L-30,20 L-32,25 L-24,29 L-26,33 L-32,31 L-42,25 L-43,21 L-34,15 L-12,5 Z " fill="#14F6FE" transform="translate(195,52)"/>
<path d="M0,0 L8,1 L12,6 L12,9 L14,9 L15,13 L15,20 L12,25 L10,27 L8,30 L6,30 L7,26 L9,24 L9,15 L5,10 L2,9 L-22,9 L-41,12 L-47,12 L-47,14 L-44,15 L-44,17 L-49,15 L-52,12 L-52,10 L-42,8 L-33,5 L-22,3 L-6,2 Z " fill="#3DABFC" transform="translate(145,38)"/>
<path d="M0,0 L1,0 L2,17 L8,22 L27,31 L34,35 L46,39 L61,47 L62,51 L59,52 L32,41 L22,36 L15,33 L9,30 L4,30 L1,26 L0,23 Z " fill="#45026D" transform="translate(123,176)"/>
<path d="M0,0 L8,0 L10,5 L5,4 L4,6 L0,6 L-11,9 L-14,9 L-16,13 L-20,22 L-20,28 L-21,30 L-19,30 L-19,36 L-11,36 L-6,37 L-6,39 L5,39 L8,34 L10,37 L8,41 L4,42 L-12,42 L-22,39 L-27,33 L-27,23 L-24,11 L-16,5 L-5,1 Z M-1,6 Z M9,33 Z " fill="#12F1FE" transform="translate(310,205)"/>
<path d="M0,0 L7,1 L9,4 L10,13 L7,32 L5,33 L5,26 L7,26 L7,15 L5,15 L3,12 L-5,13 L-15,16 L-19,17 L-20,20 L-22,20 L-23,30 L-24,30 L-24,12 L-23,6 L-10,3 L-9,2 L-1,1 Z " fill="#6A6DF9" transform="translate(374,106)"/>
<path d="M0,0 L5,2 L11,6 L7,7 L4,8 L3,13 L6,14 L9,19 L11,21 L18,24 L20,25 L20,27 L25,29 L35,36 L37,39 L42,42 L47,47 L50,48 L50,35 L51,35 L51,55 L47,54 L30,41 L17,31 L0,18 Z " fill="#6C11B0" transform="translate(139,331)"/>
<path d="M0,0 L1,0 L1,60 L-1,59 L-1,57 L-5,58 L-15,55 L-35,45 L-56,33 L-59,30 L-59,28 L-54,29 L-47,33 L-37,37 L-19,45 L-6,50 L-4,50 L-3,48 L0,48 Z " fill="#7711C7" transform="translate(188,177)"/>
<path d="M0,0 L5,3 L7,6 L10,7 L10,9 L14,11 L20,14 L22,17 L23,19 L27,20 L26,25 L22,27 L21,26 L19,31 L10,38 L6,41 L2,42 L-6,42 L-8,40 L0,38 L6,33 L7,29 L7,13 L3,5 L0,2 Z " fill="#7C5BFD" transform="translate(270,80)"/>
<path d="M0,0 L1,0 L1,60 L2,60 L3,48 L4,22 L5,22 L5,51 L4,63 L7,63 L7,61 L44,43 L47,41 L50,41 L49,44 L45,48 L34,53 L24,59 L21,59 L21,61 L9,65 L6,67 L5,70 L1,71 L1,81 L0,81 L0,69 L-14,69 L-14,89 L-15,89 L-15,68 L0,68 L-1,65 L-3,63 L-2,62 L-1,21 Z " fill="#30013C" transform="translate(208,177)"/>
<path d="M0,0 L1,2 L-1,7 L-4,8 L-4,15 L1,20 L7,24 L7,26 L11,28 L14,31 L19,33 L24,37 L28,41 L37,47 L42,50 L46,54 L46,3 L45,1 L48,2 L48,60 L44,58 L36,53 L23,44 L2,30 L1,28 L6,29 L1,24 L-5,20 L-7,16 L-7,8 Z " fill="#560181" transform="translate(142,302)"/>
<path d="M0,0 L16,1 L30,3 L39,10 L42,15 L42,28 L39,39 L34,49 L28,48 L23,45 L13,40 L6,35 L10,34 L11,35 L19,36 L23,40 L25,41 L31,41 L35,37 L37,37 L39,29 L40,16 L38,16 L30,6 L22,5 L4,5 L1,8 L0,22 L-3,19 L-3,4 Z " fill="#578EFE" transform="translate(32,171)"/>
<path d="M0,0 L14,0 L21,8 L21,18 L15,18 L15,16 L4,16 L-7,12 L-8,7 L-3,2 Z " fill="#39D6FA" transform="translate(284,68)"/>
<path d="M0,0 L5,0 L5,11 L3,12 L1,18 L-10,26 L-15,29 L-19,27 L-20,22 L-18,15 L-14,13 L-12,8 L-3,1 Z " fill="#5A8FFE" transform="translate(370,127)"/>
<path d="M0,0 L2,0 L1,12 L-2,26 L-4,22 L-5,15 L-15,15 L-35,21 L-39,23 L-42,28 L-44,28 L-46,33 L-48,33 L-49,44 L-50,44 L-50,33 L-39,16 L-33,13 L-18,11 L-18,9 L-9,5 Z " fill="#6380FC" transform="translate(376,157)"/>
<path d="M0,0 L2,1 L0,5 L-3,5 L-5,9 L-7,34 L-3,35 L2,40 L10,40 L29,33 L40,31 L36,34 L6,45 L0,44 L0,42 L-5,42 L-6,40 L-10,41 L-13,31 L-15,31 L-15,33 L-17,33 L-17,23 L-14,21 L-16,20 L-14,15 L-12,12 L-10,12 L-10,10 L-8,9 L-5,4 Z " fill="#775AFD" transform="translate(130,78)"/>
<path d="M0,0 L2,2 L7,11 L9,14 L9,19 L2,25 L-13,35 L-26,45 L-28,45 L-29,48 L-34,51 L-38,51 L-38,9 L-34,7 L-36,12 L-36,43 L-33,43 L-33,41 L-25,37 L-24,35 L-17,32 L-14,32 L-14,30 L-12,30 L-12,28 L-7,26 L-5,23 L0,20 L2,20 L2,13 L0,4 Z " fill="#6D63FA" transform="translate(251,297)"/>
<path d="M0,0 L5,0 L4,5 L-2,13 L-11,21 L-14,21 L-14,23 L-20,24 L-22,28 L-26,29 L-28,23 L-28,16 L-19,10 L-12,8 L-4,3 L-3,1 Z " fill="#7C30D4" transform="translate(298,305)"/>
<path d="M0,0 L6,1 L14,4 L26,8 L26,10 L28,10 L30,15 L33,15 L33,17 L36,17 L35,21 L26,25 L20,29 L15,29 L15,32 L10,33 L8,32 L10,28 L13,26 L15,21 L20,20 L19,16 L15,16 L14,11 L4,5 L4,3 L0,2 Z " fill="#8153FC" transform="translate(276,84)"/>
<path d="M0,0 Z M-9,1 L0,1 L0,5 L2,7 L-14,15 L-17,16 L-17,14 L-27,14 L-31,16 L-36,13 L-46,9 L-46,8 L-36,8 L-35,4 L-26,4 L-22,3 L-14,3 Z " fill="#11E9F8" transform="translate(225,26)"/>
<path d="M0,0 L4,0 L4,2 L8,3 L8,5 L10,5 L10,7 L20,10 L28,14 L34,15 L37,18 L53,21 L53,70 L49,69 L48,67 L51,66 L51,52 L50,48 L49,32 L47,32 L47,30 L45,30 L45,28 L41,26 L35,24 L32,21 L30,20 L30,18 L24,18 L24,16 L18,14 L5,6 L2,5 Z " fill="#7B64FD" transform="translate(135,155)"/>
<path d="M0,0 L5,0 L1,1 L4,15 L9,23 L15,35 L26,43 L27,46 L36,52 L41,55 L46,56 L46,41 L47,31 L48,31 L48,64 L46,65 L36,58 L30,51 L21,47 L17,42 L9,35 L5,30 L3,29 L1,18 Z " fill="#734CEB" transform="translate(34,215)"/>
<path d="M0,0 L16,1 L19,3 L7,3 L-2,6 L-6,8 L-8,12 L-9,19 L-7,22 L7,22 L7,23 L-5,25 L-8,26 L-21,26 L-24,20 L-24,18 L-22,18 L-22,13 L-19,12 L-17,8 L-16,6 L-13,6 L-12,2 Z " fill="#6675FC" transform="translate(93,64)"/>
<path d="M0,0 L4,1 L10,10 L12,19 L14,19 L14,26 L11,31 L10,28 L10,17 L8,17 L5,11 L1,9 L-7,10 L-10,11 L-26,12 L-45,16 L-51,18 L-56,18 L-54,16 L-14,3 L-3,1 Z " fill="#5C7EFA" transform="translate(149,30)"/>
<path d="M0,0 L7,1 L15,5 L28,10 L37,14 L37,16 L44,18 L53,22 L65,27 L70,29 L69,32 L64,35 L62,38 L56,38 L50,35 L53,32 L49,28 L49,25 L45,24 L45,22 L42,22 L42,20 L35,18 L34,17 L27,16 L27,14 L23,14 L23,12 L20,11 L14,9 L14,7 L12,7 L12,5 L2,3 Z " fill="#7700A4" transform="translate(127,132)"/>
<path d="M0,0 L10,3 L34,11 L40,13 L41,16 L41,26 L43,26 L43,56 L33,56 L8,54 L6,52 L42,52 L42,30 L39,29 L35,18 L15,9 L11,8 L1,8 L-1,13 L-2,9 Z " fill="#6E62F6" transform="translate(79,194)"/>
<path d="M0,0 L1,2 L1,7 L-9,20 L-10,22 L-10,28 L-1,42 L1,44 L1,49 L-2,49 L-9,43 L-13,33 L-16,27 L-21,28 L-34,33 L-35,31 L-37,32 L-39,30 L-16,20 L-5,6 Z " fill="#25012A" transform="translate(266,261)"/>
<path d="M0,0 L11,0 L26,5 L36,9 L56,16 L64,19 L71,22 L70,25 L65,24 L66,21 L58,20 L51,18 L51,16 L42,16 L36,13 L35,12 L27,11 L27,9 L13,8 L13,4 L-3,4 L-13,7 L-25,12 L-30,14 L-39,16 L-43,15 L-31,10 L-6,1 Z " fill="#793DEC" transform="translate(196,105)"/>
<path d="M0,0 L9,0 L11,1 L11,3 L19,4 L24,5 L24,7 L26,8 L26,10 L3,20 L-9,26 L-14,25 L-10,20 L0,15 L2,15 L1,10 L6,6 L2,5 L2,2 Z " fill="#844BFB" transform="translate(238,121)"/>
<path d="M0,0 L28,0 L48,3 L50,4 L49,8 L41,12 L39,12 L39,10 L42,10 L43,7 L46,7 L46,5 L17,6 L5,7 L0,11 L-1,20 L1,20 L3,23 L7,25 L1,26 L-3,20 L-5,15 L-5,6 L-4,3 Z " fill="#1CC1FA" transform="translate(251,47)"/>
<path d="M0,0 L5,2 L16,8 L32,16 L43,21 L53,25 L57,27 L57,29 L65,29 L68,30 L68,32 L56,31 L49,28 L49,26 L43,26 L35,22 L25,18 L25,16 L23,16 L23,14 L19,13 L19,11 L12,10 L5,8 L5,49 L4,49 L3,32 L2,30 L0,7 Z " fill="#7D4FF7" transform="translate(120,144)"/>
<path d="M0,0 L2,0 L2,2 L7,3 L7,5 L16,8 L16,10 L25,13 L25,14 L18,14 L17,11 L9,11 L9,13 L7,13 L7,29 L9,47 L12,52 L12,54 L14,54 L14,58 L16,58 L17,63 L19,63 L22,70 L37,77 L33,78 L26,75 L21,73 L14,61 L8,53 L6,50 L3,29 L1,11 L0,7 Z " fill="#7B45E5" transform="translate(59,115)"/>
<path d="M0,0 L2,2 L5,7 L11,14 L23,22 L26,23 L26,26 L17,24 L17,22 L7,21 L10,52 L10,59 L7,59 L3,24 L0,16 L-2,1 Z " fill="#2B0128" transform="translate(25,190)"/>
<path d="M0,0 L5,0 L8,12 L7,16 L4,7 L4,2 L-5,5 L-11,9 L-27,16 L-33,18 L-36,26 L-37,26 L-37,45 L-35,51 L-31,52 L-31,54 L-2,54 L-2,55 L-12,56 L-40,56 L-40,27 L-36,13 L-26,10 L-9,4 Z " fill="#5763EF" transform="translate(317,195)"/>
<path d="M0,0 L1,0 L1,54 L-5,53 L-21,44 L-29,41 L-38,37 L-44,32 L-51,22 L-49,21 L-47,22 L-47,24 L-43,26 L-37,33 L-28,35 L-22,38 L-10,43 L-1,45 Z " fill="#764AEF" transform="translate(188,244)"/>
<path d="M0,0 L29,0 L36,4 L47,17 L52,24 L51,29 L48,34 L47,30 L47,24 L38,13 L30,3 L23,2 L3,2 L1,4 L1,20 L7,30 L11,31 L16,36 L17,39 L20,40 L20,43 L27,44 L38,44 L40,43 L39,46 L37,46 L36,50 L29,49 L23,45 L18,43 L18,41 L11,39 L4,31 L1,28 L-1,21 L-1,3 Z " fill="#41A2FD" transform="translate(93,259)"/>
<path d="M0,0 L2,0 L1,4 L-47,28 L-53,29 L-54,26 L-53,24 L-50,24 L-50,21 L-42,17 L-31,15 L-31,12 L-23,10 L-20,10 L-20,7 L-13,4 Z " fill="#7F01B4" transform="translate(270,141)"/>
<path d="M0,0 L1,4 L-3,26 L-5,30 L-16,37 L-18,37 L-18,39 L-23,41 L-27,45 L-39,51 L-47,58 L-49,58 L-48,39 L-47,39 L-47,50 L-40,49 L-39,45 L-33,43 L-33,41 L-29,39 L-26,36 L-22,35 L-22,33 L-12,27 L-6,25 L-2,7 Z " fill="#7334D5" transform="translate(365,228)"/>
<path d="M0,0 L4,0 L4,11 L2,20 L1,44 L-10,57 L-13,60 L-14,57 L-11,56 L-11,54 L-9,54 L-8,48 L-4,42 L-2,33 L-1,24 L-1,12 L-2,11 L-7,11 L-15,15 L-21,19 L-30,22 L-34,21 L-27,16 L-17,12 L-6,5 L-1,2 Z " fill="#7631E0" transform="translate(270,212)"/>
<path d="M0,0 L1,0 L1,23 L29,22 L39,21 L43,20 L41,51 L40,51 L40,40 L38,41 L37,48 L35,49 L37,28 L0,30 L-3,30 L-1,28 L13,27 L14,26 L0,25 Z " fill="#30024B" transform="translate(276,228)"/>
<path d="M0,0 L6,0 L10,3 L3,2 L5,12 L12,22 L15,29 L22,35 L26,37 L29,41 L29,43 L33,45 L37,47 L42,47 L44,37 L46,36 L45,55 L40,55 L34,51 L25,45 L25,42 L20,40 L13,34 L6,20 L2,14 Z " fill="#696DFA" transform="translate(35,216)"/>
<path d="M0,0 L11,0 L8,2 L-2,6 L-9,11 L-11,11 L-12,17 L-14,22 L-16,22 L-16,25 L-21,25 L-27,23 L-28,18 L-30,17 L-23,11 L-21,11 L-21,9 L-9,3 L-6,3 L-6,1 Z " fill="#785AFC" transform="translate(77,60)"/>
<path d="M0,0 L2,0 L2,2 L4,2 L3,17 L2,37 L-1,50 L-7,58 L-8,58 L-8,52 L-4,47 L-2,42 L0,30 L0,14 L-8,14 L-22,19 L-32,20 L-28,17 L-18,14 L-18,12 L-16,12 L-16,10 L-5,4 L-3,1 Z " fill="#7B61FC" transform="translate(335,122)"/>
<path d="M0,0 L24,0 L29,3 L32,7 L32,16 L29,18 L27,9 L25,7 L21,6 L-2,6 L-7,7 L-19,7 L-19,9 L-17,9 L-16,12 L-22,10 L-23,7 L-25,6 L-25,4 Z " fill="#1DCDFD" transform="translate(123,46)"/>
<path d="M0,0 L2,0 L2,9 L0,9 L0,13 L-3,13 L-3,15 L-17,26 L-23,31 L-28,36 L-31,40 L-34,40 L-35,44 L-45,46 L-45,31 L-40,27 L-38,28 L-38,31 L-41,36 L-42,38 L-34,36 L-32,32 L-21,26 L-7,15 L-4,12 L-2,12 L-2,6 L-8,9 L-14,9 L-11,6 L-4,1 Z " fill="#7A2EDC" transform="translate(256,334)"/>
<path d="M0,0 L2,1 L3,4 L10,8 L13,11 L13,13 L9,13 L30,27 L43,36 L53,43 L55,44 L55,36 L56,36 L56,70 L53,69 L55,68 L55,48 L51,47 L37,37 L36,35 L31,33 L15,20 L4,13 L4,30 L3,30 L1,13 L0,7 L4,8 L4,6 L1,5 Z " fill="#41015C" transform="translate(135,318)"/>
<path d="M0,0 L4,2 L6,4 L-21,17 L-26,16 L-33,21 L-36,22 L-38,27 L-53,28 L-49,25 L-52,23 L-52,20 L-50,18 L-33,18 L-28,14 L-5,2 Z " fill="#180860" transform="translate(245,78)"/>
<path d="M0,0 L5,2 L19,11 L26,15 L39,25 L45,29 L46,24 L48,28 L48,34 L46,34 L48,45 L48,51 L45,49 L47,49 L43,36 L34,28 L20,18 L17,16 L17,14 L12,12 L1,5 L0,8 L0,4 L2,4 Z " fill="#530376" transform="translate(37,256)"/>
<path d="M0,0 L1,0 L2,7 L7,11 L30,25 L35,28 L35,30 L40,32 L41,33 L44,24 L49,17 L50,21 L48,26 L47,35 L46,35 L45,28 L43,35 L43,41 L34,35 L26,29 L26,27 L17,24 L7,17 L1,14 L0,17 L-1,7 Z " fill="#3E0253" transform="translate(88,283)"/>
<path d="M0,0 L11,0 L9,2 L9,9 L6,12 L7,16 L3,17 L2,16 L2,69 L8,69 L10,71 L9,72 L0,72 L-1,70 L-2,25 L-2,1 Z " fill="#7701B4" transform="translate(196,169)"/>
<path d="M0,0 L1,2 L5,0 L11,0 L12,2 L3,4 L-13,12 L-19,14 L-19,16 L-21,16 L-21,18 L-31,23 L-39,26 L-43,25 L-38,24 L-38,22 L-45,24 L-54,23 L-54,21 L-42,20 L-19,9 L-9,4 L-2,1 Z " fill="#2B0130" transform="translate(326,103)"/>
<path d="M0,0 L12,0 L19,6 L18,11 L7,15 L4,16 L-5,16 L-5,9 L-2,4 L0,4 Z " fill="#14E9FB" transform="translate(104,68)"/>
<path d="M0,0 L7,4 L18,12 L27,19 L39,23 L39,13 L40,13 L41,18 L41,28 L34,27 L24,23 L5,13 L0,9 L-1,2 Z " fill="#4E017D" transform="translate(19,137)"/>
<path d="M0,0 L2,1 L-1,4 L1,5 L0,11 L-16,20 L-30,27 L-37,28 L-37,30 L-40,30 L-39,22 L-37,18 L-37,25 L-26,20 L-21,15 L-12,8 Z " fill="#600289" transform="translate(380,138)"/>
<path d="M0,0 L2,2 L6,3 L6,5 L13,6 L18,9 L25,10 L47,21 L54,24 L64,29 L64,30 L52,29 L42,25 L19,14 L7,7 L-1,3 L-1,8 L-2,8 L-2,1 Z " fill="#3F044B" transform="translate(121,141)"/>
<path d="M0,0 L2,0 L2,14 L8,26 L10,32 L10,36 L17,35 L15,38 L11,38 L10,42 L2,51 L-5,61 L-8,61 L-6,57 L4,43 L4,34 L-2,17 L-4,5 L-2,1 Z " fill="#250431" transform="translate(325,187)"/>
<path d="M0,0 L11,0 L11,23 L6,27 L1,25 L0,24 Z " fill="#6E0092" transform="translate(195,368)"/>
<path d="M0,0 L9,3 L9,6 L3,6 L-6,12 L-12,13 L-12,15 L-20,20 L-22,20 L-22,22 L-25,24 L-34,26 L-33,29 L-42,26 L-39,24 L-29,17 L-24,16 L-24,14 L-17,11 L-10,7 L-3,4 L-2,1 Z " fill="#360242" transform="translate(378,74)"/>
<path d="M0,0 L10,0 L26,6 L35,11 L39,22 L41,23 L41,45 L38,46 L23,46 L4,45 L3,43 L37,42 L38,38 L38,28 L35,18 L32,12 L25,9 L25,7 L19,6 L12,3 L2,3 L0,8 L-4,13 L-5,17 L-8,17 L-6,11 L-4,6 L-2,6 L-1,1 Z " fill="#5699FE" transform="translate(80,201)"/>
<path d="M0,0 L18,0 L18,1 L3,1 L3,22 L6,30 L14,38 L14,40 L19,41 L22,44 L29,47 L34,50 L39,51 L40,47 L44,43 L49,35 L51,36 L45,46 L42,50 L40,59 L33,55 L33,53 L28,51 L13,42 L9,38 L9,36 L5,34 L2,32 L0,22 Z " fill="#5C69F6" transform="translate(90,258)"/>
<path d="M0,0 L8,0 L18,3 L25,6 L38,10 L46,13 L67,21 L66,24 L59,27 L57,27 L53,19 L37,13 L23,10 L10,5 L-4,5 L-7,6 L-9,4 Z " fill="#7238CD" transform="translate(309,55)"/>
<path d="M0,0 L6,1 L19,5 L24,8 L28,10 L28,12 L33,14 L35,16 L34,19 L35,21 L32,21 L30,19 L27,21 L26,25 L20,27 L21,21 L19,21 L17,11 L11,9 L8,7 L8,4 L1,2 Z M17,16 Z " fill="#7E55FA" transform="translate(323,62)"/>
<path d="M0,0 L5,2 L12,6 L18,8 L31,8 L33,43 L33,71 L26,71 L19,69 L19,68 L27,68 L27,70 L31,69 L31,47 L28,22 L26,17 L15,12 L11,9 L11,7 L6,6 L6,4 L-1,3 L-2,1 Z " fill="#7B3EEB" transform="translate(84,129)"/>
<path d="M0,0 L17,0 L17,2 L47,4 L49,5 L48,8 L48,6 L29,5 L-19,5 L-25,7 L-27,11 L-29,12 L-37,7 L-37,5 L-27,2 L-5,1 Z " fill="#1EC3FD" transform="translate(194,17)"/>
<path d="M0,0 L1,2 L-1,2 L-2,7 L-7,10 L-10,13 L-17,18 L-24,26 L-26,28 L-32,28 L-31,21 L-25,14 L-10,4 L-2,1 Z " fill="#7D28CC" transform="translate(351,270)"/>
<path d="M0,0 L4,1 L10,13 L13,20 L17,24 L17,31 L9,38 L7,38 L7,40 L5,39 L10,31 L12,29 L11,22 L6,15 L2,7 L1,4 L-6,6 L-8,8 L-18,12 L-28,17 L-35,19 L-30,14 L-14,6 Z " fill="#6924CB" transform="translate(247,287)"/>
<path d="M0,0 L7,1 L10,3 L12,8 L17,9 L20,12 L20,15 L22,15 L26,19 L33,19 L49,13 L57,12 L55,14 L38,20 L28,24 L25,24 L25,22 L19,20 L12,16 L12,13 L9,13 L9,11 L4,9 L-1,7 L-1,4 Z " fill="#7548F3" transform="translate(39,75)"/>
<path d="M0,0 L1,0 L0,8 L-1,12 L1,12 L-2,35 L-4,59 L-5,59 L-5,36 L-3,27 L-2,16 L-6,16 L-7,19 L-17,25 L-22,27 L-18,22 L-20,21 L-9,14 L-8,10 L-10,10 L-10,12 L-12,12 L-13,15 L-19,15 L-18,12 L-5,4 Z " fill="#3C0147" transform="translate(276,196)"/>
<path d="M0,0 L23,0 L28,2 L31,7 L31,14 L27,21 L24,21 L14,21 L8,23 L4,17 L10,18 L25,18 L28,13 L27,5 L22,4 L-1,4 L-9,6 L-3,7 L-6,9 L-6,11 L-12,9 L-15,6 L-15,4 L-17,4 L-17,2 Z " fill="#13D7FA" transform="translate(121,51)"/>
<path d="M0,0 L18,0 L26,1 L28,5 L11,5 L4,7 L1,10 L1,21 L2,24 L4,24 L4,26 L7,27 L11,32 L6,31 L1,29 L-4,20 L-4,4 Z " fill="#2FBAFE" transform="translate(36,175)"/>
<path d="M0,0 L14,0 L15,3 L18,3 L21,11 L24,12 L23,21 L18,22 L6,22 L-1,20 L-1,19 L7,19 L7,21 L13,21 L12,11 L6,4 L-6,3 L-6,2 L0,2 Z " fill="#5F7EFB" transform="translate(292,65)"/>
<path d="M0,0 L7,1 L8,2 L17,3 L26,6 L37,8 L38,9 L51,11 L50,15 L49,12 L35,11 L24,8 L8,7 L4,5 L-7,4 L-8,7 L-10,8 L-12,14 L-12,21 L-7,26 L-8,29 L-14,22 L-18,18 L-18,13 L-13,8 L-12,5 L-7,1 Z " fill="#5092FB" transform="translate(255,37)"/>
<path d="M0,0 L7,0 L6,2 L2,2 L1,28 L-1,34 L-2,46 L6,46 L4,50 L-6,53 L-6,38 L-2,4 Z " fill="#7347E9" transform="translate(349,110)"/>
<path d="M0,0 L2,0 L3,17 L4,17 L5,0 L6,0 L6,45 L4,48 L3,26 L1,26 L1,52 L-2,57 L-7,57 L-8,55 L-3,55 L-2,50 L-1,47 L0,10 L1,2 L-10,2 L-10,54 L-11,54 L-11,1 Z " fill="#4A0366" transform="translate(205,308)"/>
<path d="M0,0 L6,1 L14,5 L28,15 L31,20 L33,22 L33,27 L28,26 L22,21 L21,19 L16,17 L11,12 L11,10 L6,8 L2,3 L2,1 Z " fill="#763CD5" transform="translate(47,271)"/>
<path d="M0,0 L9,0 L11,3 L11,11 L8,23 L7,25 L5,25 L3,29 L-6,36 L-11,39 L-17,41 L-25,41 L-31,33 L-27,35 L-26,36 L-17,36 L-9,33 L-4,30 L-2,27 L4,24 L7,17 L7,5 L6,4 L-9,4 L-18,6 L-17,3 Z " fill="#1EC9FE" transform="translate(295,261)"/>
<path d="M0,0 L8,0 L15,3 L16,5 L19,5 L21,11 L21,16 L23,16 L24,19 L22,23 L20,24 L3,24 L3,23 L13,22 L13,15 L14,13 L10,12 L8,7 L8,4 L5,4 L4,2 Z " fill="#6A73FE" transform="translate(302,64)"/>
<path d="M0,0 L1,0 L0,15 L-3,18 L-6,21 L-9,21 L-10,26 L-23,36 L-41,50 L-46,54 L-48,54 L-48,48 L-38,46 L-37,42 L-34,42 L-32,38 L-27,33 L-13,21 L-8,17 L-6,17 L-6,15 L-3,15 L-3,11 L-1,11 L-1,2 L-5,3 L-4,1 Z " fill="#68009C" transform="translate(259,332)"/>
<path d="M0,0 L7,1 L14,3 L25,5 L62,17 L58,20 L56,20 L56,22 L54,21 L52,19 L29,12 L10,6 L1,2 Z " fill="#400656" transform="translate(273,81)"/>
<path d="M0,0 L3,0 L6,9 L10,11 L10,4 L11,4 L11,10 L13,10 L16,13 L31,19 L45,24 L50,27 L49,29 L47,29 L46,31 L32,24 L20,19 L5,13 L0,11 L-2,7 L-1,1 Z " fill="#350A76" transform="translate(200,41)"/>
<path d="M0,0 L8,1 L26,7 L36,11 L45,14 L45,15 L38,14 L24,12 L15,9 L6,6 L-2,6 L-17,9 L-23,12 L-27,11 L-8,3 Z " fill="#5D51DA" transform="translate(196,6)"/>
<path d="M0,0 L14,0 L14,16 L13,57 L12,57 L11,7 L10,3 L2,2 L2,55 L5,56 L4,57 L10,59 L10,60 L3,59 L0,57 Z " fill="#68019B" transform="translate(194,246)"/>
<path d="M0,0 L9,1 L18,5 L35,11 L35,14 L37,15 L40,19 L39,20 L34,20 L25,16 L5,6 L4,2 Z " fill="#8200B4" transform="translate(141,146)"/>
<path d="M0,0 L11,2 L22,10 L25,12 L26,20 L26,24 L22,22 L15,16 L15,14 L11,14 L6,8 L0,4 Z " fill="#7143DC" transform="translate(103,309)"/>
<path d="M0,0 L48,0 L63,1 L67,2 L65,6 L57,10 L55,10 L57,5 L61,6 L62,2 L58,3 L-1,3 L-1,5 L-6,6 L-5,9 L-9,7 L-9,4 L-4,1 Z M59,4 Z " fill="#14D9FC" transform="translate(175,21)"/>
<path d="M0,0 L2,1 L1,3 L-1,3 L-1,5 L-4,6 L-11,17 L-15,21 L-21,22 L-21,24 L-31,29 L-34,26 L-35,23 L-35,9 L-33,9 L-33,17 L-28,18 L-25,19 L-21,15 L-15,16 L-15,11 L-10,10 L-6,3 L-2,4 Z " fill="#6375FD" transform="translate(355,240)"/>
<path d="M0,0 L2,1 L2,53 L-5,47 L-11,44 L-13,39 L-17,37 L-22,32 L-32,23 L-39,18 L-35,17 L-26,24 L-17,30 L-17,32 L-15,32 L-13,37 L-9,37 L-6,42 L0,45 Z " fill="#704FEC" transform="translate(187,304)"/>
<path d="M0,0 L9,0 L14,3 L14,5 L21,6 L23,10 L18,9 L7,9 L2,10 L1,12 L1,26 L5,34 L5,36 L7,36 L6,38 L3,36 L3,33 L1,33 L-1,28 L-2,19 L-3,18 L-3,1 Z " fill="#6F60F8" transform="translate(20,104)"/>
<path d="M0,0 L2,0 L2,3 L8,5 L17,11 L24,13 L24,15 L28,16 L39,22 L41,23 L41,25 L43,26 L47,30 L40,30 L37,30 L39,27 L35,27 L35,24 L25,21 L24,18 L15,15 L4,10 L-1,7 L-3,5 L3,6 L3,4 L1,4 Z " fill="#3C0045" transform="translate(23,74)"/>
<path d="M0,0 L5,2 L8,5 L14,8 L24,16 L24,18 L26,18 L26,21 L30,23 L36,26 L39,28 L39,30 L41,30 L40,26 L40,16 L42,16 L43,18 L44,36 L40,34 L23,21 L10,11 L0,3 Z " fill="#630792" transform="translate(90,308)"/>
<path d="M0,0 L7,0 L15,4 L17,6 L27,10 L36,14 L37,16 L47,20 L46,24 L45,22 L41,21 L31,19 L26,14 L23,13 L20,10 L20,8 L5,8 L3,9 L-2,6 L-2,1 Z " fill="#650089" transform="translate(11,78)"/>
<path d="M0,0 L2,0 L2,13 L1,21 L6,20 L4,25 L1,38 L0,42 L-5,45 L-4,36 L-3,34 L-2,25 L-5,27 L-8,26 L-5,22 L-3,9 L-2,8 L-1,1 Z " fill="#3C0033" transform="translate(314,268)"/>
<path d="M0,0 L2,2 L4,14 L6,11 L8,23 L12,57 L10,60 L10,58 L8,58 L8,56 L6,55 L7,44 L5,44 L2,19 Z " fill="#2E0021" transform="translate(54,111)"/>
<path d="M0,0 L2,0 L2,2 L4,2 L3,6 L3,4 L-14,15 L-30,23 L-38,23 L-40,27 L-41,23 L-40,21 L-36,21 L-35,19 L-31,18 L-5,3 Z " fill="#320137" transform="translate(387,87)"/>
<path d="M0,0 L9,3 L17,7 L24,9 L26,11 L39,15 L38,19 L33,20 L21,15 L-1,4 L-2,1 Z " fill="#8201BB" transform="translate(74,114)"/>
<path d="M0,0 L10,0 L21,5 L24,7 L31,9 L42,12 L44,16 L44,21 L42,22 L39,21 L38,16 L36,16 L36,14 L30,13 L30,10 L21,10 L17,11 L16,8 L12,9 L6,5 L5,2 L-2,3 L-9,4 L-6,2 Z " fill="#6C2AC6" transform="translate(148,29)"/>
<path d="M0,0 L1,0 L2,54 L-1,55 L-2,43 L-4,42 L-4,15 L-2,1 Z " fill="#2D0033" transform="translate(211,247)"/>
<path d="M0,0 L2,0 L2,8 L10,21 L17,30 L18,41 L18,57 L16,66 L14,62 L13,31 L10,25 L0,12 L-2,8 L-6,5 L-6,3 L-1,1 Z " fill="#1F0333" transform="translate(69,218)"/>
<path d="M0,0 L7,2 L20,12 L26,17 L32,21 L42,26 L46,29 L49,30 L49,17 L50,17 L50,37 L46,36 L29,23 L16,13 L0,1 Z " fill="#6702A3" transform="translate(140,349)"/>
<path d="M0,0 L1,0 L2,17 L8,22 L18,27 L19,31 L25,32 L30,38 L24,37 L15,33 L9,30 L4,30 L1,26 L0,23 Z " fill="#53006D" transform="translate(123,176)"/>
<path d="M0,0 L2,1 L-5,9 L-9,16 L-11,16 L-11,22 L-5,32 L-3,35 L1,36 L2,38 L11,38 L19,33 L24,28 L34,20 L37,11 L38,15 L35,22 L25,30 L20,35 L16,36 L16,38 L11,41 L8,41 L8,43 L2,43 L2,40 L-3,38 L-10,29 L-14,22 L-14,16 L-6,5 L-3,1 Z " fill="#5081FC" transform="translate(269,267)"/>
<path d="M0,0 L2,0 L2,22 L0,63 L-3,62 L-3,34 L-2,14 Z " fill="#15000C" transform="translate(211,177)"/>
<path d="M0,0 L1,4 L0,36 L12,34 L19,31 L33,29 L37,24 L44,15 L45,19 L43,19 L43,21 L41,23 L40,27 L37,27 L37,29 L35,29 L35,31 L28,34 L16,35 L13,38 L6,41 L-1,42 L-1,2 Z " fill="#7560FC" transform="translate(216,247)"/>
<path d="M0,0 L1,4 L0,6 L3,6 L3,9 L7,7 L10,7 L10,9 L16,9 L18,11 L18,14 L21,14 L22,12 L23,15 L28,15 L28,17 L33,17 L29,20 L20,19 L8,14 L-3,8 L-9,6 L-9,5 L-4,4 L-3,1 Z " fill="#7539EF" transform="translate(102,105)"/>
<path d="M0,0 L5,0 L5,2 L0,7 L-2,12 L4,14 L21,23 L17,24 L9,20 L5,19 L5,17 L0,16 L-3,15 L-2,27 L-3,36 L-5,36 L-6,30 L-6,4 L-3,2 L0,2 Z " fill="#1E0012" transform="translate(122,127)"/>
<path d="M0,0 L1,0 L1,19 L0,34 L27,25 L33,21 L41,10 L43,10 L43,15 L36,24 L29,27 L18,32 L6,36 L4,37 L-2,37 Z " fill="#702FD4" transform="translate(284,166)"/>
<path d="M0,0 L6,0 L10,3 L9,7 L2,11 L1,8 L4,8 L4,6 L-12,9 L-14,13 L-24,15 L-28,14 L-26,14 L-26,12 L-9,3 Z " fill="#750097" transform="translate(333,105)"/>
<path d="M0,0 L12,0 L10,69 L9,69 L8,35 L7,33 L8,28 L4,17 L5,14 L4,10 L7,7 L8,1 L0,1 Z " fill="#8204CB" transform="translate(197,170)"/>
<path d="M0,0 L8,1 L14,5 L22,8 L38,16 L44,19 L58,24 L58,26 L55,27 L54,25 L45,22 L35,19 L32,16 L19,12 L19,10 L15,10 L15,8 L8,6 L-3,5 L-3,7 L-5,7 L-4,2 Z " fill="#640085" transform="translate(63,103)"/>
<path d="M0,0 L4,1 L1,1 L1,3 L-5,6 L-13,7 L-14,8 L-21,8 L-21,10 L-25,11 L-25,14 L-22,15 L-22,17 L-20,18 L-21,19 L-12,24 L-12,26 L-9,26 L-10,28 L-13,27 L-13,25 L-20,24 L-33,16 L-35,15 L-34,11 L-12,4 Z " fill="#7236D8" transform="translate(60,62)"/>
<path d="M0,0 L3,1 L-5,5 L-28,13 L-37,16 L-40,17 L-41,19 L-39,19 L-39,23 L-45,22 L-51,19 L-46,15 L-29,9 L-15,4 L-3,1 Z " fill="#29022C" transform="translate(115,82)"/>
<path d="M0,0 L1,0 L1,5 L-1,5 L-1,7 L-3,7 L-2,21 L-1,26 L3,25 L9,22 L11,22 L11,20 L17,19 L17,21 L12,23 L11,25 L9,25 L9,29 L3,31 L2,35 L-5,36 L-5,8 Z " fill="#6764FD" transform="translate(323,242)"/>
<path d="M0,0 L4,1 L-6,8 L-23,20 L-36,31 L-39,31 L-40,25 L-37,22 L-28,17 L-28,19 L-21,15 L-13,8 L-1,1 Z " fill="#670292" transform="translate(249,331)"/>
<path d="M0,0 L14,0 L21,8 L21,18 L15,18 L15,16 L4,16 L-3,14 L-3,13 L9,13 L13,14 L12,7 L10,1 L-1,4 L-3,8 L-5,8 L-5,6 L-7,5 Z " fill="#45A4F8" transform="translate(284,68)"/>
<path d="M0,0 L14,0 L12,1 L12,3 L14,3 L16,6 L16,69 L10,68 L4,65 L8,64 L12,64 L13,66 L13,4 L2,3 L2,1 Z " fill="#2F0139" transform="translate(175,170)"/>
<path d="M0,0 L0,3 L-5,8 L-7,14 L-5,20 L3,25 L4,28 L0,26 L-10,21 L-10,18 L-13,18 L-13,15 L-18,15 L-20,13 L-19,8 L-18,6 L-7,6 L-7,4 L-3,3 L-3,1 Z " fill="#7556EC" transform="translate(243,38)"/>
<path d="M0,0 L8,1 L17,5 L19,7 L26,9 L38,11 L43,15 L46,19 L45,21 L40,17 L20,12 L17,9 L17,7 L7,5 L3,4 L2,15 L1,15 L0,9 Z " fill="#6F46EC" transform="translate(22,158)"/>
<path d="M0,0 L3,0 L3,2 L13,3 L20,4 L22,9 L25,35 L25,54 L21,53 L24,53 L22,34 L21,18 L19,18 L17,13 L14,9 L9,7 L8,4 L1,3 Z " fill="#7843E8" transform="translate(33,106)"/>
<path d="M0,0 L6,1 L9,5 L4,6 L1,8 L1,6 L-2,7 L-6,11 L-7,15 L-9,16 L-10,20 L-11,38 L-14,38 L-14,21 L-13,13 L-10,9 L-7,9 L-5,3 Z " fill="#21DBFB" transform="translate(137,74)"/>
<path d="M0,0 L1,4 L-1,6 L-1,13 L0,17 L2,17 L6,23 L8,27 L12,26 L25,18 L30,16 L27,19 L25,24 L7,34 L5,34 L1,22 L-3,14 L-3,3 Z " fill="#428EF8" transform="translate(330,189)"/>
<path d="M0,0 L1,4 L0,21 L4,22 L9,27 L17,27 L36,20 L47,18 L43,21 L13,32 L7,31 L7,29 L2,29 L0,23 L-2,19 L-2,5 Z " fill="#4C8FFD" transform="translate(123,91)"/>
<path d="M0,0 L11,0 L11,8 L10,8 L10,1 L1,1 L2,43 L7,44 L9,28 L10,28 L10,45 L7,53 L0,53 Z " fill="#7900AD" transform="translate(195,310)"/>
<path d="M0,0 L2,1 L-9,9 L-26,18 L-46,26 L-50,26 L-48,22 L-38,18 L-19,10 L-14,7 L-9,5 L-5,2 Z " fill="#5105A0" transform="translate(269,197)"/>
<path d="M0,0 L8,1 L12,6 L12,9 L14,9 L15,13 L15,20 L12,25 L10,27 L8,30 L6,30 L7,26 L12,21 L12,11 L9,6 L7,5 L7,3 L-2,3 L-15,5 L-16,6 L-41,10 L-52,11 L-52,10 L-42,8 L-33,5 L-22,3 L-6,2 Z " fill="#518BFA" transform="translate(145,38)"/>
<path d="M0,0 L3,0 L3,2 L8,3 L21,7 L21,55 L20,55 L19,47 L18,14 L12,9 L3,5 L3,3 L1,3 Z " fill="#8857FD" transform="translate(167,237)"/>
<path d="M0,0 L5,1 L13,2 L17,6 L19,7 L25,7 L29,3 L31,3 L32,0 L34,0 L33,5 L28,15 L22,14 L17,11 L7,6 L0,1 Z " fill="#5362EF" transform="translate(38,205)"/>
<path d="M0,0 L6,2 L22,10 L26,13 L26,17 L31,18 L31,20 L22,17 L12,12 L12,10 L5,8 L-7,3 L-3,2 L1,3 Z " fill="#3C014A" transform="translate(156,283)"/>
<path d="M0,0 L1,4 L-1,14 L-3,21 L-10,23 L-12,27 L-17,30 L-24,33 L-28,35 L-23,30 L-18,28 L-17,25 L-12,22 L-11,18 L-13,19 L-17,18 L-4,9 L-2,9 L-2,7 L-7,8 L-3,4 L-1,4 Z " fill="#6D0FA2" transform="translate(361,254)"/>
<path d="M0,0 L16,0 L22,1 L22,3 L24,3 L24,6 L26,6 L27,14 L26,19 L24,19 L22,11 L20,7 L17,5 L12,4 L0,4 L-5,9 L-12,11 L-12,9 L-6,5 Z " fill="#30B9FE" transform="translate(343,178)"/>
<path d="M0,0 L8,0 L18,4 L25,7 L21,9 L19,8 L19,6 L12,7 L10,6 L2,6 L-8,9 L-13,8 L-21,12 L-25,11 L-5,2 Z " fill="#26D7F4" transform="translate(195,52)"/>
<path d="M0,0 L1,0 L1,60 L11,59 L7,62 L1,64 L1,66 L-2,66 L-1,4 Z " fill="#7017C8" transform="translate(214,174)"/>
<path d="M0,0 L13,0 L13,1 L-8,4 L-13,4 L-14,7 L-17,7 L-19,11 L-23,16 L-25,16 L-27,20 L-29,23 L-29,30 L-26,36 L-31,34 L-34,29 L-34,22 L-31,23 L-29,18 L-22,9 L-18,4 L-10,1 Z " fill="#2FB9FE" transform="translate(291,260)"/>
<path d="M0,0 L2,0 L2,2 L-7,6 L-41,23 L-51,27 L-56,29 L-61,29 L-58,27 L-15,6 Z " fill="#450473" transform="translate(262,131)"/>
<path d="M0,0 L0,3 L-10,11 L-21,18 L-37,30 L-47,38 L-48,36 L-51,36 L-50,32 L-50,35 L-43,31 L-33,22 L-14,9 Z " fill="#250123" transform="translate(260,327)"/>
<path d="M0,0 L7,1 L24,9 L25,12 L25,56 L17,52 L16,50 L21,51 L21,49 L23,48 L23,18 L22,12 L17,12 L16,9 L12,8 L11,5 L4,4 L0,2 Z " fill="#7856F9" transform="translate(163,294)"/>
<path d="M0,0 L6,2 L15,7 L15,9 L18,10 L16,11 L10,9 L15,16 L19,18 L25,26 L21,24 L15,20 L15,18 L11,16 L5,15 L2,11 L0,5 Z " fill="#6F14AE" transform="translate(39,263)"/>
<path d="M0,0 L23,0 L28,2 L28,3 L7,3 L5,9 L3,12 L-3,10 L-5,9 L-5,6 L-7,5 L-9,2 Z " fill="#0DE6FC" transform="translate(120,54)"/>
<path d="M0,0 L5,1 L13,2 L16,6 L1,6 L2,30 L3,77 L11,77 L11,78 L2,78 L1,76 L0,32 L-2,2 Z " fill="#3A0038" transform="translate(193,164)"/>
<path d="M0,0 L1,4 L-3,8 L-19,16 L-49,30 L-52,29 L-42,23 L-12,8 L-8,6 L-5,6 L-5,4 L-1,2 Z " fill="#16000A" transform="translate(269,127)"/>
<path d="M0,0 L1,0 L0,15 L-11,23 L-32,37 L-40,42 L-42,33 L-43,31 L-39,32 L-39,35 L-33,35 L-33,33 L-27,30 L-25,30 L-25,28 L-15,22 L-12,22 L-10,18 L-7,18 L-5,14 L-2,7 Z " fill="#6A4CF7" transform="translate(310,275)"/>
<path d="M0,0 L43,0 L45,1 L44,5 L36,9 L34,9 L34,7 L37,7 L38,4 L41,4 L41,2 L12,3 L0,4 L-5,8 L-6,13 L-7,13 L-7,6 L-6,3 Z " fill="#1CD5FD" transform="translate(256,50)"/>
<path d="M0,0 L7,0 L10,1 L10,3 L17,4 L20,8 L27,11 L25,12 L16,10 L7,5 L2,4 L5,27 L5,39 L4,39 L3,32 L2,31 L0,9 Z " fill="#6436C9" transform="translate(32,211)"/>
<path d="M0,0 L10,0 L13,1 L12,4 L16,6 L24,11 L32,15 L34,17 L34,20 L28,18 L13,10 L6,4 L0,5 L-4,7 L-5,3 Z " fill="#360761" transform="translate(135,71)"/>
<path d="M0,0 L4,0 L4,2 L-1,4 L2,7 L7,10 L7,12 L3,12 L3,21 L1,24 L-1,25 L-1,16 L-5,17 L-4,14 L-2,14 L-3,10 L-9,6 L-9,4 L-11,4 L-11,2 Z " fill="#1E0017" transform="translate(284,125)"/>
<path d="M0,0 L2,0 L3,2 L13,1 L16,2 L16,5 L22,6 L22,8 L24,8 L25,13 L28,13 L27,15 L19,16 L15,14 L15,12 L17,12 L17,8 L12,7 L11,10 L9,9 L8,6 L0,3 Z " fill="#7C3EE0" transform="translate(162,37)"/>
<path d="M0,0 L2,0 L2,8 L1,11 L-2,38 L-3,38 L-3,22 L-1,7 L-3,7 L-3,5 L-8,7 L-11,11 L-20,14 L-24,14 L-24,16 L-27,18 L-31,17 L-17,9 L-10,6 Z " fill="#732DD1" transform="translate(340,117)"/>
<path d="M0,0 L11,0 L20,1 L22,2 L35,3 L37,5 L12,3 L2,3 L3,23 L6,32 L7,38 L13,42 L14,45 L9,43 L3,38 L1,26 Z " fill="#611CC5" transform="translate(86,252)"/>
<path d="M0,0 L4,1 L19,12 L29,16 L30,14 L32,16 L31,18 L37,20 L40,23 L40,25 L43,26 L39,27 L35,23 L27,20 L27,18 L20,16 L9,9 L2,6 L0,10 Z " fill="#5C0382" transform="translate(125,208)"/>
<path d="M0,0 L2,0 L2,2 L4,2 L3,17 L2,37 L-1,50 L-7,58 L-8,58 L-8,52 L-4,47 L-2,42 L0,30 L1,8 L-1,8 L-1,5 L-6,6 L-3,1 Z " fill="#7948F2" transform="translate(335,122)"/>
<path d="M0,0 L2,0 L4,29 L4,61 L1,57 L0,9 L-1,6 L-3,6 L-3,4 L-1,4 Z " fill="#260014" transform="translate(190,167)"/>
<path d="M0,0 L12,0 L12,1 L2,1 L2,5 L0,6 L-2,10 L-3,17 L3,17 L0,19 L-11,19 L-11,12 L-8,6 L-3,1 Z " fill="#489CFC" transform="translate(102,67)"/>
<path d="M0,0 L10,2 L23,10 L25,12 L25,18 L22,17 L20,13 L18,12 L18,10 L8,8 L2,7 L1,10 L3,10 L3,15 L2,11 L0,11 L-2,5 L-2,1 Z " fill="#5F82FE" transform="translate(27,124)"/>
<path d="M0,0 L1,0 L1,60 L-1,59 L-1,57 L-5,58 L-11,56 L-12,54 L-8,53 L-14,50 L-14,48 L-8,49 L-4,50 L-3,48 L0,48 Z " fill="#8912DC" transform="translate(188,177)"/>
<path d="M0,0 L29,0 L29,2 L0,3 L-8,4 L-13,6 L-14,9 L-14,16 L-13,17 L-5,18 L-5,19 L-14,19 L-16,15 L-18,15 L-18,6 L-12,1 Z " fill="#11E2FE" transform="translate(268,52)"/>
<path d="M0,0 L7,1 L15,5 L28,10 L37,14 L37,16 L44,18 L47,20 L40,20 L34,17 L27,16 L27,14 L23,14 L23,12 L20,11 L14,9 L14,7 L12,7 L12,5 L2,3 Z " fill="#640083" transform="translate(127,132)"/>
<path d="M0,0 L3,0 L5,3 L13,5 L15,6 L15,8 L17,8 L17,10 L24,11 L24,12 L16,12 L9,9 L6,9 L8,11 L8,13 L2,11 L-4,8 L-3,3 Z " fill="#71009E" transform="translate(124,131)"/>
<path d="M0,0 L7,0 L8,3 L2,8 L-11,10 L-14,11 L-14,22 L-15,22 L-15,10 L-14,4 L-1,1 Z " fill="#7064FB" transform="translate(365,108)"/>
<path d="M0,0 L2,0 L2,2 L0,2 L-1,5 L-8,7 L-10,12 L-22,19 L-23,26 L-27,25 L-26,16 L-21,11 Z " fill="#110745" transform="translate(300,54)"/>
<path d="M0,0 L7,2 L3,5 L-8,10 L-23,10 L-26,8 L-16,6 L-8,1 L-5,2 Z " fill="#7243FA" transform="translate(292,114)"/>
<path d="M0,0 L1,3 L-4,3 L-3,8 L-1,8 L-1,10 L2,10 L2,12 L8,13 L15,16 L16,18 L25,22 L26,24 L19,22 L0,15 L-5,12 L-5,10 L-7,10 L-7,3 Z " fill="#6C38CE" transform="translate(218,41)"/>
<path d="M0,0 L24,0 L29,3 L32,7 L32,16 L31,16 L30,8 L26,4 L-3,4 L-25,5 L-25,4 Z " fill="#2ABEFE" transform="translate(123,46)"/>
<path d="M0,0 L3,1 L3,59 L-1,57 L-9,52 L-18,45 L-15,44 L-10,48 L-7,49 L-7,47 L-3,49 L1,53 L1,2 Z " fill="#6004AB" transform="translate(187,303)"/>
<path d="M0,0 L5,0 L1,1 L4,15 L9,23 L15,35 L26,43 L27,47 L22,45 L19,42 L19,40 L15,39 L8,31 L5,26 L3,22 L0,7 Z " fill="#6E5CF4" transform="translate(34,215)"/>
<path d="M0,0 L5,2 L9,5 L8,9 L8,6 L1,6 L1,8 L-7,9 L-9,11 L-21,13 L-22,17 L-27,15 L-23,12 L-7,4 Z " fill="#6B0092" transform="translate(273,130)"/>
<path d="M0,0 L6,1 L7,3 L14,4 L13,6 L20,8 L20,10 L12,9 L12,7 L1,8 L-2,12 L-3,27 L-4,27 L-5,19 L-5,7 L-4,3 L-2,3 L-2,1 Z " fill="#7B5DF7" transform="translate(70,125)"/>
<path d="M0,0 L2,1 L-1,2 L-2,6 L-8,11 L-10,11 L-10,14 L-7,13 L3,17 L1,21 L-5,19 L-15,13 L-16,9 L-7,3 Z " fill="#19DFF3" transform="translate(168,64)"/>
<path d="M0,0 L2,0 L1,12 L0,12 L0,7 L-7,7 L-12,10 L-17,13 L-26,16 L-35,18 L-38,21 L-42,22 L-40,17 L-33,13 L-18,11 L-18,9 L-9,5 Z " fill="#6E33D2" transform="translate(376,157)"/>
<path d="M0,0 L5,2 L15,7 L15,8 L6,7 L3,6 L4,15 L5,16 L5,49 L4,49 L3,32 L2,30 L0,7 Z " fill="#742FD3" transform="translate(120,144)"/>
<path d="M0,0 L3,0 L3,7 L2,9 L0,9 L-2,13 L-6,18 L-8,17 L-5,13 L-4,9 L-9,10 L-12,10 L-13,13 L-22,19 L-26,18 L-12,8 L-8,7 L-3,2 Z " fill="#771BBC" transform="translate(307,296)"/>
<path d="M0,0 L5,3 L10,10 L10,34 L4,41 L2,42 L-6,42 L-8,40 L0,38 L6,33 L7,29 L7,13 L3,5 L0,2 Z " fill="#4A9CFD" transform="translate(270,80)"/>
<path d="M0,0 L8,0 L8,13 L7,13 L6,4 L-4,5 L-9,9 L-12,9 L-13,12 L-25,15 L-31,16 L-27,13 L-21,11 L-17,11 L-15,6 L-8,2 Z " fill="#7D51F2" transform="translate(270,152)"/>
<path d="M0,0 L3,1 L1,1 L1,3 L-4,5 L-8,9 L-20,15 L-28,22 L-30,22 L-29,3 L-28,3 L-28,14 L-21,13 L-21,11 L-14,8 L-7,3 L-4,3 L-4,1 Z " fill="#6B22C5" transform="translate(346,264)"/>
<path d="M0,0 L4,1 L4,21 L-9,19 L-19,16 L-19,15 L-6,15 L0,16 Z " fill="#240017" transform="translate(123,235)"/>
<path d="M0,0 L2,1 L3,5 L4,32 L7,35 L7,38 L10,38 L12,36 L13,40 L15,40 L15,42 L6,39 L0,34 Z " fill="#7851F3" transform="translate(125,160)"/>
<path d="M0,0 L8,0 L8,12 L5,16 L0,15 L-1,14 L-1,3 Z " fill="#7900AE" transform="translate(197,369)"/>
<path d="M0,0 L4,0 L5,10 L7,11 L7,26 L9,26 L9,15 L10,15 L11,21 L12,49 L10,48 L10,30 L7,30 L6,45 L0,45 L0,44 L5,44 L5,14 L3,14 L2,1 Z " fill="#3B0665" transform="translate(117,206)"/>
<path d="M0,0 L4,1 L1,4 L-6,7 L-13,7 L-21,11 L-26,12 L-26,14 L-37,17 L-46,17 L-43,15 L-34,12 L-6,2 Z " fill="#7130CE" transform="translate(121,82)"/>
<path d="M0,0 L2,1 L0,3 L-3,15 L-3,25 L1,30 L11,33 L30,33 L30,35 L7,35 L-2,32 L-6,30 L-6,13 L-1,1 Z " fill="#34C3FD" transform="translate(287,213)"/>
<path d="M0,0 L8,0 L21,4 L21,5 L-1,4 L-8,6 L-10,7 L-27,9 L-32,11 L-36,10 L-29,7 L-19,5 L-15,3 Z " fill="#498BF6" transform="translate(194,11)"/>
<path d="M0,0 L2,0 L2,2 L6,3 L-9,11 L-13,13 L-23,13 L-21,8 L-14,7 Z " fill="#2B0130" transform="translate(237,161)"/>
<path d="M0,0 L4,1 L11,6 L11,10 L13,11 L12,19 L6,25 L4,24 L6,20 L7,13 L5,13 L1,3 Z " fill="#784FF2" transform="translate(156,36)"/>
<path d="M0,0 L1,0 L1,8 L-1,13 L-2,19 L-6,22 L-10,22 L-4,29 L-5,31 L-17,22 L-22,20 L-23,17 L-22,15 L-15,17 L-11,20 L-7,20 L-3,11 Z " fill="#3C0967" transform="translate(73,199)"/>
<path d="M0,0 L4,1 L3,6 L6,6 L6,8 L13,8 L13,9 L3,9 L-9,14 L-19,16 L-28,20 L-30,19 L-14,11 L0,4 L2,4 L2,1 Z " fill="#210A5A" transform="translate(241,21)"/>
<path d="M0,0 L4,1 L15,8 L21,11 L19,12 L12,10 L8,8 L6,8 L6,11 L10,13 L14,18 L7,16 L6,13 L2,12 L0,5 Z " fill="#711ABD" transform="translate(89,297)"/>
<path d="M0,0 L27,2 L27,3 L21,4 L29,6 L38,7 L40,11 L36,9 L23,8 L21,7 L1,5 Z " fill="#350252" transform="translate(85,247)"/>
<path d="M0,0 L2,1 L-1,6 L-3,15 L-3,32 L5,35 L9,36 L31,37 L31,38 L1,38 L1,36 L-4,35 L-6,29 L-6,9 L-4,8 L-2,2 Z " fill="#499FFE" transform="translate(285,211)"/>
<path d="M0,0 L3,0 L3,2 L-15,14 L-27,22 L-30,21 L-23,15 L-15,8 L-13,6 L-9,6 L-9,4 L-4,1 Z " fill="#490050" transform="translate(356,261)"/>
<path d="M0,0 L2,0 L2,9 L0,9 L0,13 L-3,13 L-3,15 L-17,26 L-22,30 L-21,26 L-7,15 L-4,12 L-2,12 L-2,6 L-8,9 L-14,9 L-11,6 L-4,1 Z " fill="#7C22C7" transform="translate(256,334)"/>
<path d="M0,0 L1,3 L7,4 L8,6 L3,6 L4,14 L5,41 L8,47 L8,49 L10,50 L12,53 L9,53 L3,45 L2,37 L1,16 L0,10 Z " fill="#7E30E8" transform="translate(126,211)"/>
<path d="M0,0 L5,0 L2,3 L-6,5 L-2,6 L0,7 L-3,9 L-13,10 L-14,11 L-21,12 L-17,14 L-17,16 L-23,14 L-27,10 L-14,6 L-4,1 Z " fill="#7300A4" transform="translate(309,119)"/>
<path d="M0,0 L2,1 L-1,4 L1,5 L0,9 L-4,10 L-15,17 L-20,20 L-22,19 L-18,14 L-16,14 L-15,10 Z " fill="#4B0164" transform="translate(380,138)"/>
<path d="M0,0 L4,1 L1,1 L-1,5 L-16,9 L-31,13 L-37,15 L-42,15 L-40,13 Z " fill="#6746D1" transform="translate(135,33)"/>
<path d="M0,0 L13,2 L13,3 L3,2 L2,6 L-5,8 L-15,12 L-15,10 L-21,12 L-25,11 L-5,2 Z " fill="#6D2EC9" transform="translate(244,29)"/>
<path d="M0,0 L2,0 L1,4 L-8,13 L-11,15 L-15,15 L-15,18 L-17,18 L-16,11 L-11,6 L-8,2 L-7,3 L-2,3 L-2,1 Z " fill="#8346E5" transform="translate(290,314)"/>
<path d="M0,0 L8,0 L8,2 L10,3 L2,5 L1,11 L-1,11 L-2,19 L-3,20 L-4,51 L-5,59 L-6,59 L-6,44 L-5,17 L-2,4 L0,4 Z " fill="#7E3DED" transform="translate(290,141)"/>
<path d="M0,0 L9,1 L19,6 L19,7 L1,6 L1,5 L-20,6 L-17,4 L-8,1 Z " fill="#7046E4" transform="translate(84,56)"/>
<path d="M0,0 L1,0 L1,50 L3,50 L4,46 L9,47 L9,44 L14,42 L18,42 L18,40 L22,38 L26,39 L25,41 L15,45 L2,53 L0,53 Z " fill="#721ABF" transform="translate(212,247)"/>
<path d="M0,0 L14,0 L18,2 L21,5 L24,7 L15,6 L12,4 L-4,3 L-3,6 L-13,6 L-13,8 L-17,7 L-7,1 Z " fill="#705BF1" transform="translate(305,59)"/>
<path d="M0,0 L11,0 L15,2 L31,3 L39,5 L39,6 L27,5 L1,5 L-2,7 L-4,18 L-6,17 L-6,10 L-3,3 Z " fill="#429FFD" transform="translate(248,41)"/>
<path d="M0,0 L1,2 L-1,8 L-1,14 L-2,16 L0,16 L1,19 L0,23 L5,25 L8,28 L8,30 L10,31 L3,30 L-6,16 L-7,9 L-6,6 L-2,6 L-1,1 Z " fill="#19D7F3" transform="translate(77,212)"/>
<path d="M0,0 L10,2 L16,0 L16,22 L15,22 L15,6 L12,7 L2,7 L-7,3 L-9,1 L-1,2 Z " fill="#3C0245" transform="translate(100,131)"/>
<path d="M0,0 L10,0 L17,2 L14,4 L12,9 L-3,10 L1,7 L-2,5 L-2,2 Z " fill="#3C0B6D" transform="translate(195,96)"/>
<path d="M0,0 L11,1 L11,50 L7,49 L6,47 L9,46 L9,32 L8,9 L6,3 L4,3 L4,1 Z " fill="#854DFD" transform="translate(177,175)"/>
<path d="M0,0 L12,0 L18,2 L22,6 L24,10 L24,19 L18,24 L16,24 L18,19 L19,17 L21,17 L20,8 L19,4 L2,3 L-3,6 L-5,5 Z " fill="#1BD4FE" transform="translate(343,181)"/>
<path d="M0,0 L7,1 L8,2 L17,3 L26,6 L37,8 L38,9 L51,11 L50,15 L49,12 L35,11 L14,6 L-7,2 L-7,1 Z " fill="#5783F7" transform="translate(255,37)"/>
<path d="M0,0 L11,2 L17,4 L17,6 L26,7 L41,12 L40,15 L39,13 L26,12 L22,9 L6,5 L0,2 Z " fill="#6535C0" transform="translate(267,35)"/>
<path d="M0,0 L2,0 L3,9 L5,11 L9,21 L13,27 L13,29 L15,29 L15,31 L9,29 L5,25 L4,20 L2,20 L1,15 L-1,15 L-1,13 L1,13 Z " fill="#6A68F6" transform="translate(74,158)"/>
<path d="M0,0 L2,0 L1,10 L-1,21 L-2,21 L-2,10 L-8,9 L-8,11 L-21,15 L-23,14 L-15,10 L-1,1 Z " fill="#7134BF" transform="translate(388,91)"/>
<path d="M0,0 L1,0 L1,30 L-9,30 L-34,28 L-36,26 L0,26 Z " fill="#5746E4" transform="translate(121,220)"/>
<path d="M0,0 L2,0 L0,4 L-5,9 L-12,12 L-19,12 L-23,13 L-23,15 L-32,17 L-32,20 L-37,20 L-38,18 L-28,13 L-13,8 L-5,4 L-2,4 L-2,2 L0,2 Z " fill="#7F39E9" transform="translate(253,274)"/>
<path d="M0,0 L1,0 L1,37 L-7,32 L-20,22 L-17,21 L-9,25 L-2,30 L-1,30 Z " fill="#651CB5" transform="translate(82,249)"/>
<path d="M0,0 L10,3 L19,7 L33,14 L34,18 L31,19 L29,17 L28,15 L16,11 L12,7 L2,3 Z " fill="#500594" transform="translate(151,209)"/>
<path d="M0,0 L2,0 L2,3 L-13,11 L-20,12 L-21,9 L-25,7 L-24,6 L-17,5 L-16,4 L-6,3 Z " fill="#8001B6" transform="translate(312,124)"/>
<path d="M0,0 L5,2 L19,11 L23,13 L24,18 L17,16 L17,14 L12,12 L1,5 L0,8 L0,4 L2,4 Z " fill="#48015E" transform="translate(37,256)"/>
<path d="M0,0 L4,0 L2,4 L-3,5 L-10,8 L-20,15 L-23,17 L-27,17 L-27,15 L-31,14 L-23,11 Z " fill="#7B1BBB" transform="translate(253,211)"/>
<path d="M0,0 L1,2 L3,2 L5,7 L7,18 L2,24 L0,24 Z " fill="#7569FD" transform="translate(280,90)"/>
<path d="M0,0 L7,0 L9,1 L9,3 L12,4 L15,9 L15,19 L14,19 L13,12 L8,6 L6,5 L-22,5 L-22,4 L-14,3 L-13,2 Z " fill="#469EFD" transform="translate(143,40)"/>
<path d="M0,0 L4,2 L12,9 L22,16 L22,18 L18,17 L14,14 L9,13 L-2,6 L-2,4 L1,2 Z " fill="#53017D" transform="translate(158,334)"/>
<path d="M0,0 L6,1 L14,5 L14,6 L8,6 L17,12 L20,16 L25,18 L28,25 L24,23 L21,19 L16,17 L11,12 L11,10 L6,8 L2,3 L2,1 Z " fill="#722EC4" transform="translate(47,271)"/>
<path d="M0,0 L7,6 L8,9 L20,15 L22,19 L13,16 L5,12 L-3,9 L-12,9 L-9,7 L2,7 L0,4 Z " fill="#3B075A" transform="translate(92,48)"/>
<path d="M0,0 L5,2 L13,6 L13,9 L16,11 L16,13 L21,14 L23,18 L17,16 L12,13 L11,11 L4,8 L-1,6 L-2,2 L0,2 Z " fill="#40054E" transform="translate(12,86)"/>
<path d="M0,0 L4,1 L8,7 L7,9 L4,6 L-7,6 L-7,8 L-17,10 L-26,12 L-30,11 L-15,7 L-13,4 Z " fill="#686CF6" transform="translate(149,30)"/>
<path d="M0,0 L7,2 L15,8 L13,9 L10,8 L7,5 L1,3 L3,9 L7,10 L7,12 L10,13 L11,17 L4,15 L0,11 L-1,8 L-3,7 L-3,2 Z " fill="#722DC9" transform="translate(145,337)"/>
<path d="M0,0 L1,0 L3,7 L3,12 L8,10 L7,13 L4,13 L3,18 L-2,22 L-4,22 L-3,13 L-2,2 Z " fill="#740BAF" transform="translate(269,322)"/>
<path d="M0,0 L2,0 L2,42 L5,43 L3,47 L-1,48 Z " fill="#8137F2" transform="translate(211,306)"/>
<path d="M0,0 L2,0 L2,2 L7,3 L7,5 L9,6 L3,6 L4,15 L5,17 L7,43 L7,50 L6,50 L3,29 L1,11 L0,7 Z " fill="#6C23B9" transform="translate(59,115)"/>
<path d="M0,0 L2,1 L2,53 L-5,47 L-11,44 L-10,40 L0,45 Z " fill="#7630EC" transform="translate(187,304)"/>
<path d="M0,0 L3,1 L2,4 L-19,12 L-22,12 L-22,9 L-24,8 L-9,3 Z " fill="#24012D" transform="translate(314,193)"/>
<path d="M0,0 L10,1 L14,4 L4,5 L1,6 L2,29 L5,30 L6,36 L2,33 L-1,18 L-1,2 Z " fill="#7161F6" transform="translate(25,162)"/>
<path d="M0,0 L6,0 L7,3 L15,5 L15,7 L20,9 L29,12 L34,14 L40,14 L40,17 L37,18 L20,12 L15,9 L10,7 L3,5 Z " fill="#7260FA" transform="translate(147,272)"/>
<path d="M0,0 L3,4 L7,13 L11,17 L11,24 L3,31 L1,31 L1,33 L-1,32 L4,24 L6,22 L5,15 L1,6 Z " fill="#6E1AC1" transform="translate(253,294)"/>
<path d="M0,0 L2,1 L-8,9 L-7,11 L-12,16 L-16,22 L-18,27 L-19,27 L-18,20 L-15,15 L-20,16 L-20,8 L-19,8 L-19,13 L-10,6 Z " fill="#5C027E" transform="translate(335,273)"/>
<path d="M0,0 L5,1 L15,6 L22,9 L32,14 L32,15 L20,14 L14,11 L14,9 L9,8 L9,5 L5,5 L5,3 L0,1 Z " fill="#27011E" transform="translate(153,156)"/>
<path d="M0,0 L4,2 L-14,10 L-24,14 L-26,13 L-33,17 L-36,17 L-34,14 Z " fill="#2B0862" transform="translate(184,54)"/>
<path d="M0,0 L3,0 L6,9 L10,11 L10,4 L11,4 L11,10 L13,10 L16,14 L15,16 L7,14 L0,11 L-2,7 L-1,1 Z " fill="#461088" transform="translate(200,41)"/>
<path d="M0,0 L1,0 L2,9 L2,20 L-9,33 L-12,36 L-13,33 L-10,32 L-10,30 L-8,30 L-7,24 L-3,18 L-1,9 Z " fill="#7942F0" transform="translate(269,236)"/>
<path d="M0,0 L5,1 L22,9 L25,15 L28,17 L21,16 L20,13 L16,12 L9,9 L4,4 L0,2 Z " fill="#32002E" transform="translate(156,224)"/>
<path d="M0,0 L7,0 L20,5 L20,7 L26,9 L25,13 L23,9 L16,8 L16,5 L0,5 L-6,9 L-6,6 L-3,1 Z " fill="#21DDFE" transform="translate(85,203)"/>
<path d="M0,0 L2,0 L1,5 L-16,16 L-18,16 L-18,14 L-23,13 L-20,10 L-12,9 L-7,4 L-3,4 L-2,2 L0,2 Z " fill="#8D24CD" transform="translate(266,206)"/>
<path d="M0,0 L15,7 L24,11 L28,17 L19,21 L14,23 L10,22 L11,21 L16,21 L16,19 L21,17 L21,13 L21,11 L13,10 L12,7 L2,5 Z " fill="#1ADAF4" transform="translate(159,86)"/>
<path d="M0,0 L5,0 L8,12 L7,16 L4,7 L4,2 L-5,5 L-11,9 L-15,11 L-33,13 L-31,11 L-19,8 L-1,1 Z " fill="#5B35D8" transform="translate(317,195)"/>
<path d="M0,0 L5,0 L9,9 L8,14 L0,14 L-1,10 L3,10 L1,5 L-3,4 L-8,5 L-7,2 L-2,1 Z " fill="#36C3FE" transform="translate(289,69)"/>
<path d="M0,0 L2,1 L3,4 L10,8 L13,11 L13,13 L9,14 L6,14 L4,13 L4,30 L3,30 L1,13 L0,7 L4,8 L4,6 L1,5 Z " fill="#510061" transform="translate(135,318)"/>
<path d="M0,0 L25,0 L25,10 L27,9 L28,4 L29,4 L28,24 L27,24 L27,13 L25,14 L24,21 L22,22 L24,1 L-13,3 L-16,3 L-14,1 Z " fill="#400675" transform="translate(289,255)"/>
<path d="M0,0 L3,1 L3,3 L-1,6 L-3,6 L-3,11 L10,16 L9,18 L5,18 L5,16 L-4,13 L-14,11 L-11,10 L-10,6 L-1,1 Z " fill="#16072B" transform="translate(219,93)"/>
<path d="M0,0 L4,1 L0,6 L0,12 L2,12 L2,14 L-1,14 L0,17 L0,25 L-2,26 L-4,13 L-6,4 Z " fill="#290020" transform="translate(59,100)"/>
<path d="M0,0 L2,1 L0,5 L0,37 L10,37 L8,38 L7,41 L2,44 L-2,44 L-2,2 Z " fill="#705AFC" transform="translate(215,304)"/>
<path d="M0,0 L1,0 L0,15 L-3,18 L-6,21 L-9,21 L-9,24 L-18,28 L-22,32 L-24,31 L-13,21 L-8,17 L-6,17 L-6,15 L-3,15 L-3,11 L-1,11 L-1,2 L-5,3 L-4,1 Z " fill="#730AAF" transform="translate(259,332)"/>
<path d="M0,0 L11,3 L19,6 L21,8 L14,13 L10,13 L9,9 L8,6 L3,4 L3,2 L-1,1 Z " fill="#7E33E6" transform="translate(307,94)"/>
<path d="M0,0 L2,1 L0,5 L-3,5 L-5,9 L-8,18 L-9,32 L-10,32 L-11,19 L-16,21 L-14,15 L-12,12 L-10,12 L-10,10 L-8,9 L-5,4 Z " fill="#726FFB" transform="translate(130,78)"/>
<path d="M0,0 L7,2 L20,12 L26,17 L32,21 L32,24 L34,24 L33,26 L16,13 L0,1 Z " fill="#5A0082" transform="translate(140,349)"/>
<path d="M0,0 L1,0 L1,6 L-3,10 L-14,16 L-17,17 L-17,19 L-23,21 L-25,25 L-28,25 L-28,23 L-26,23 L-25,20 L-20,19 L-20,17 L-16,15 L-12,11 L-6,7 Z " fill="#7153F3" transform="translate(360,244)"/>
<path d="M0,0 L1,0 L5,27 L5,41 L3,41 L2,27 L0,25 L-1,13 Z " fill="#1F0010" transform="translate(121,191)"/>
<path d="M0,0 L7,1 L10,2 L10,7 L8,7 L8,4 L3,6 L-2,6 L-5,8 L-13,9 L-14,12 L-18,11 L-15,10 L-15,8 L-6,4 Z " fill="#68007B" transform="translate(381,79)"/>
<path d="M0,0 L5,1 L12,5 L22,9 L24,11 L17,13 L3,5 L0,2 Z " fill="#720DBA" transform="translate(129,205)"/>
<path d="M0,0 L5,1 L5,3 L14,6 L21,12 L21,20 L18,20 L17,16 L15,16 L12,10 L11,7 L7,6 L0,1 Z " fill="#7F6FFD" transform="translate(165,239)"/>
<path d="M0,0 L2,1 L-4,8 L-6,14 L-6,21 L-3,29 L2,32 L6,35 L-1,34 L-6,31 L-9,27 L-9,17 L-6,5 Z " fill="#1CDFFE" transform="translate(292,211)"/>
<path d="M0,0 L6,2 L18,7 L23,9 L22,12 L17,14 L17,12 L13,13 L12,10 L9,10 L9,6 L0,3 Z " fill="#69008B" transform="translate(174,152)"/>
<path d="M0,0 L18,0 L26,1 L27,3 L3,3 L-1,6 L-2,9 L-2,17 L-1,18 L-1,23 L-4,20 L-4,4 Z " fill="#3CADFE" transform="translate(36,175)"/>
<path d="M0,0 L2,0 L5,3 L4,8 L-7,16 L-12,19 L-12,16 L-9,16 L-9,13 L-6,13 L-5,7 Z M3,1 Z " fill="#5980FB" transform="translate(367,137)"/>
<path d="M0,0 L1,0 L1,15 L-1,21 L-9,28 L-12,29 L-12,26 L-9,26 L-8,23 L-4,22 L-3,6 L-5,5 Z " fill="#5D0280" transform="translate(262,327)"/>
<path d="M0,0 L1,2 L0,11 L2,13 L12,16 L13,19 L17,21 L22,25 L23,28 L17,26 L11,21 L7,18 L2,16 L-3,10 L-2,5 Z " fill="#6C65F7" transform="translate(145,304)"/>
<path d="M0,0 L6,5 L9,15 L9,18 L4,17 L-4,11 L-7,6 L-11,2 L-6,3 L-2,8 L5,11 L3,5 L0,2 Z " fill="#680BA1" transform="translate(75,287)"/>
<path d="M0,0 L2,0 L5,5 L5,7 L7,7 L7,11 L9,11 L10,16 L12,16 L15,23 L30,30 L26,31 L19,28 L14,26 L7,14 L1,6 Z " fill="#7033D5" transform="translate(66,162)"/>
<path d="M0,0 L1,0 L1,5 L-5,12 L-7,13 L-13,13 L-18,10 L-19,7 L-5,6 L-1,3 Z " fill="#2EC6FE" transform="translate(70,200)"/>
<path d="M0,0 L2,0 L1,9 L-2,16 L-11,20 L-13,20 L-12,15 L-4,8 L-2,8 L-2,5 L0,5 Z " fill="#5750E4" transform="translate(369,192)"/>
<path d="M0,0 L2,4 L0,4 L1,22 L2,23 L3,32 L4,37 L6,37 L5,39 L0,35 L-2,14 L-3,9 L-3,2 Z " fill="#6E48E4" transform="translate(17,100)"/>
<path d="M0,0 L2,0 L2,6 L-2,7 L-4,11 L-6,12 L-4,6 L-2,6 L-2,4 L-10,8 L-12,10 L-18,9 L-13,4 L-6,2 Z " fill="#7F38D7" transform="translate(252,340)"/>
<path d="M0,0 L8,0 L11,3 L12,8 L12,18 L10,28 L9,28 L9,9 L7,3 L-9,4 L-6,2 Z " fill="#518CF9" transform="translate(361,171)"/>
<path d="M0,0 L6,0 L10,3 L9,6 L9,4 L-2,5 L-10,7 L-22,13 L-26,12 L-9,3 Z " fill="#600073" transform="translate(333,105)"/>
<path d="M0,0 L26,0 L36,12 L37,15 L35,15 L32,12 L27,8 L26,5 L18,3 L18,1 L-1,2 Z " fill="#19DDFE" transform="translate(97,261)"/>
<path d="M0,0 L1,0 L1,13 L0,33 L-2,36 L-3,11 L-2,1 Z " fill="#1C0013" transform="translate(211,247)"/>
<path d="M0,0 L21,0 L21,12 L20,12 L19,4 L15,3 L-15,2 L-15,5 L-22,7 L-17,2 L-16,1 Z " fill="#6531E2" transform="translate(292,256)"/>
<path d="M0,0 L1,0 L2,17 L10,23 L10,25 L15,27 L15,29 L8,27 L3,25 L4,29 L1,26 L0,23 Z " fill="#48024F" transform="translate(123,176)"/>
<path d="M0,0 L4,1 L-4,4 L-12,6 L-15,7 L-18,10 L-21,15 L-23,15 L-25,20 L-27,20 L-28,31 L-29,31 L-29,20 L-22,9 L-17,8 L-16,5 L-12,3 L-2,1 Z " fill="#5C69EC" transform="translate(355,170)"/>
<path d="M0,0 L9,3 L25,10 L26,12 L11,10 L11,8 L4,6 L0,4 Z " fill="#1BE2FA" transform="translate(220,60)"/>
<path d="M0,0 L6,0 L3,2 L-6,7 L-13,10 L-14,17 L-19,15 L-20,12 L-19,9 L-11,5 Z " fill="#2A0234" transform="translate(224,35)"/>
<path d="M0,0 L1,0 L1,5 L-1,5 L-1,7 L-3,7 L-3,32 L0,32 L0,30 L4,28 L9,28 L5,31 L3,31 L2,35 L-5,36 L-5,8 Z " fill="#6256E9" transform="translate(323,242)"/>
<path d="M0,0 L4,1 L-4,6 L-7,6 L-8,9 L0,7 L0,9 L-3,11 L-12,13 L-11,16 L-20,13 L-17,11 L-7,4 L-2,3 L-2,1 Z " fill="#440469" transform="translate(356,87)"/>
<path d="M0,0 L2,0 L2,4 L-1,5 L-1,3 L-10,6 L-22,11 L-31,13 L-31,11 L-26,8 L-20,7 L-19,5 L-10,3 L-6,1 Z " fill="#740091" transform="translate(387,83)"/>
<path d="M0,0 L12,0 L14,2 L5,2 L0,9 L-1,15 L7,14 L4,16 L-5,16 L-5,9 L-2,4 L0,4 Z " fill="#29BAFC" transform="translate(104,68)"/>
<path d="M0,0 L30,0 L35,2 L35,15 L32,18 L32,2 L0,2 Z " fill="#6E5CFD" transform="translate(277,258)"/>
<path d="M0,0 L4,1 L4,3 L13,6 L13,8 L24,10 L28,12 L29,14 L37,17 L35,18 L22,14 L22,12 L16,12 L10,8 L5,6 L5,4 L0,3 Z " fill="#7528D4" transform="translate(148,225)"/>
<path d="M0,0 L11,7 L25,15 L26,18 L22,17 L15,14 L1,4 L-3,1 Z " fill="#3B002D" transform="translate(128,206)"/>
<path d="M0,0 L2,1 L-1,2 L-2,5 L-18,11 L-27,13 L-31,12 L-19,7 Z " fill="#6C30CE" transform="translate(184,108)"/>
<path d="M0,0 L1,0 L1,8 L10,8 L13,7 L14,3 L21,1 L16,6 L14,9 L11,9 L10,13 L0,15 Z " fill="#770EC7" transform="translate(211,365)"/>
<path d="M0,0 L10,3 L21,7 L21,8 L1,8 L-1,13 L-2,9 Z " fill="#6537EF" transform="translate(79,194)"/>
<path d="M0,0 L14,4 L18,6 L18,9 L22,11 L22,13 L16,11 L-2,2 Z " fill="#7A01A9" transform="translate(148,150)"/>
<path d="M0,0 L4,1 L-6,6 L-14,9 L-18,8 L-13,7 L-13,5 L-20,7 L-29,6 L-29,4 L-17,3 L-10,1 L-11,5 Z " fill="#460163" transform="translate(301,120)"/>
<path d="M0,0 L11,7 L14,10 L11,11 L10,10 L10,12 L7,13 L2,8 L-10,3 L-6,2 L0,3 Z " fill="#1D0D65" transform="translate(179,89)"/>
<path d="M0,0 L2,0 L2,14 L1,22 L3,18 L4,18 L3,32 L2,40 L1,40 L0,28 L-2,32 L-1,12 L0,9 Z " fill="#3B0456" transform="translate(341,116)"/>
<path d="M0,0 L2,0 L2,2 L8,1 L7,3 L-9,11 L-15,14 L-15,11 L-10,9 L-14,8 Z " fill="#2E075B" transform="translate(351,214)"/>
<path d="M0,0 L8,1 L19,5 L18,8 L11,11 L9,11 L5,3 L0,1 Z " fill="#7B37DC" transform="translate(357,71)"/>
<path d="M0,0 L10,1 L11,3 L8,4 L8,2 L3,2 L3,4 L-1,7 L-1,11 L9,11 L5,13 L-6,14 L-6,8 Z " fill="#18D3FC" transform="translate(109,69)"/>
<path d="M0,0 L1,0 L2,7 L7,11 L14,16 L14,18 L5,16 L1,14 L0,17 L-1,7 Z " fill="#3D014B" transform="translate(88,283)"/>
<path d="M0,0 L7,1 L9,7 L17,12 L19,14 L13,13 L-2,5 L-2,2 Z " fill="#6869F7" transform="translate(142,198)"/>
<path d="M0,0 L1,0 L1,61 L-4,61 L-10,58 L-6,57 L-2,57 L-1,59 Z " fill="#500292" transform="translate(189,177)"/>
<path d="M0,0 L2,0 L2,2 L-2,3 L-2,5 L-10,10 L-18,13 L-22,12 L-19,9 L-8,3 L-5,1 Z " fill="#2B0125" transform="translate(368,84)"/>
<path d="M0,0 L2,1 L6,1 L6,10 L3,21 L2,18 L4,4 L-4,8 L-7,12 L-9,11 L-7,8 L-10,7 Z " fill="#410153" transform="translate(306,292)"/>
<path d="M0,0 L11,0 L23,1 L26,3 L2,3 L-1,6 L-2,20 L-4,18 L-4,5 Z " fill="#489EFE" transform="translate(34,173)"/>
<path d="M0,0 L1,0 L2,5 L2,15 L-5,14 L-11,11 L-11,9 L-14,8 L-12,6 L0,10 Z " fill="#6208A2" transform="translate(58,150)"/>
<path d="M0,0 L4,2 L12,5 L19,8 L25,10 L24,13 L20,14 L20,11 L13,10 L6,7 L0,2 Z " fill="#7200A1" transform="translate(93,118)"/>
<path d="M0,0 L2,0 L2,3 L6,4 L3,4 L3,27 L0,26 Z " fill="#24001A" transform="translate(191,363)"/>
<path d="M0,0 L4,0 L3,4 L3,2 L-11,10 L-17,11 L-17,13 L-22,15 L-28,15 L-25,14 L-25,12 L-20,10 L-11,6 Z " fill="#54067C" transform="translate(375,155)"/>
<path d="M0,0 L11,3 L14,4 L16,8 L16,13 L14,14 L11,13 L10,8 L8,8 L8,6 L2,5 Z " fill="#6822BA" transform="translate(176,37)"/>
<path d="M0,0 L1,0 L1,54 L-5,53 L-8,50 L-2,49 L0,50 Z " fill="#6F22D9" transform="translate(188,244)"/>
<path d="M0,0 L9,1 L14,3 L15,4 L22,5 L29,9 L29,13 L23,11 L16,7 L8,4 L0,1 Z " fill="#7229D1" transform="translate(151,281)"/>
<path d="M0,0 L4,5 L10,12 L16,16 L14,17 L2,15 L0,4 Z " fill="#450276" transform="translate(26,192)"/>
<path d="M0,0 L17,0 L24,3 L28,9 L28,17 L27,17 L25,9 L23,5 L20,3 L15,2 L3,2 L-2,7 L-9,9 L-9,7 L-3,3 Z " fill="#26C7FE" transform="translate(340,180)"/>
<path d="M0,0 L5,2 L13,6 L11,7 L3,6 L3,13 L5,23 L5,33 L4,33 L0,7 Z " fill="#6328B5" transform="translate(11,91)"/>
<path d="M0,0 L9,3 L12,6 L13,8 L14,10 L13,13 L9,12 L4,8 L4,5 L2,5 Z " fill="#7057E1" transform="translate(114,317)"/>
<path d="M0,0 L3,0 L3,2 L7,3 L14,12 L13,17 L10,22 L9,18 L9,12 L0,1 Z " fill="#3ABEF7" transform="translate(131,271)"/>
<path d="M0,0 L2,2 L4,14 L6,11 L7,15 L7,23 L6,23 L5,39 L4,39 L0,4 Z " fill="#3B0257" transform="translate(54,111)"/>
<path d="M0,0 L4,1 L-10,13 L-22,21 L-23,18 L-21,15 L-19,15 L-10,9 L-4,4 Z " fill="#650089" transform="translate(337,288)"/>
<path d="M0,0 L2,0 L0,7 L-5,10 L-5,6 L-7,6 L-7,8 L-9,8 L-10,11 L-16,11 L-15,8 L-5,2 Z " fill="#74059B" transform="translate(273,200)"/>
<path d="M0,0 L7,1 L18,7 L18,9 L14,9 L14,16 L12,17 L12,14 L10,13 L11,8 L6,5 L6,3 L-3,3 Z " fill="#1B0014" transform="translate(333,99)"/>
<path d="M0,0 L5,0 L6,4 L6,6 L11,6 L11,9 L13,9 L14,12 L5,9 L-5,3 L-5,1 Z " fill="#8132EB" transform="translate(79,98)"/>
<path d="M0,0 L6,1 L14,4 L26,8 L26,9 L8,8 L4,5 L4,3 L0,2 Z " fill="#7948F1" transform="translate(276,84)"/>
<path d="M0,0 L8,1 L4,4 L-6,10 L-8,12 L-23,11 L-23,10 L-11,9 L-10,8 L-8,4 L-7,6 L-4,7 L-3,3 L1,3 Z " fill="#12E1F3" transform="translate(220,85)"/>
<path d="M0,0 L2,4 L1,7 L-16,14 L-19,13 L-15,9 L-7,6 L-5,5 L-4,2 Z " fill="#6839E2" transform="translate(173,52)"/>
<path d="M0,0 L1,2 L-1,7 L-4,8 L-4,15 L1,20 L7,24 L7,26 L3,25 L-5,20 L-7,16 L-7,8 Z " fill="#64048C" transform="translate(142,302)"/>
<path d="M0,0 L1,4 L-1,6 L-1,13 L0,17 L2,17 L6,23 L8,27 L11,28 L11,30 L7,31 L1,22 L-3,14 L-3,3 Z " fill="#2FB0FB" transform="translate(330,189)"/>
<path d="M0,0 L4,0 L4,14 L1,15 L1,7 L-9,9 L-13,8 L-2,2 Z " fill="#7A35DF" transform="translate(277,145)"/>
<path d="M0,0 L1,0 L1,33 L-1,34 L-11,27 L-13,23 L-9,25 L-1,28 Z " fill="#6E46E2" transform="translate(81,246)"/>
<path d="M0,0 L1,2 L1,7 L-5,15 L-6,13 L-8,13 L-9,16 L-14,18 L-8,10 Z " fill="#320446" transform="translate(266,261)"/>
<path d="M0,0 L4,1 L4,3 L8,5 L14,12 L14,14 L19,15 L20,17 L11,15 L3,6 Z " fill="#7639E4" transform="translate(137,265)"/>
<path d="M0,0 L1,0 L3,24 L3,45 L-2,45 L-3,43 L1,43 L0,15 Z " fill="#4C0381" transform="translate(116,157)"/>
<path d="M0,0 L10,0 L13,1 L13,3 L10,3 L14,8 L17,11 L12,9 L6,4 L0,5 L-4,7 L-5,3 Z " fill="#24097A" transform="translate(135,71)"/>
<path d="M0,0 L17,0 L17,2 L-23,4 L-30,4 L-27,2 L-5,1 Z " fill="#27B6FE" transform="translate(194,17)"/>
<path d="M0,0 L2,0 L4,4 L4,12 L2,17 L-8,31 L-11,31 L-9,27 L1,13 L1,4 Z " fill="#190E4D" transform="translate(328,217)"/>
<path d="M0,0 L3,1 L1,14 L-2,17 L-8,17 L-7,15 L-5,15 L-4,9 Z " fill="#370141" transform="translate(372,193)"/>
<path d="M0,0 L7,0 L6,2 L2,2 L-1,22 L-2,29 L-4,29 L-3,13 L-2,4 Z " fill="#6C2AC1" transform="translate(349,110)"/>
<path d="M0,0 L2,0 L2,4 L5,3 L4,17 L1,25 L-1,24 L0,16 L1,2 L-1,1 Z " fill="#330032" transform="translate(342,114)"/>
<path d="M0,0 L1,2 L5,0 L11,0 L12,2 L3,4 L-5,8 L-15,8 L-11,5 L-2,1 Z " fill="#340139" transform="translate(326,103)"/>
<path d="M0,0 L8,0 L11,5 L13,6 L15,11 L17,12 L17,18 L16,20 L13,20 L12,10 L6,3 L-6,2 L-6,1 Z " fill="#598BFC" transform="translate(292,66)"/>
<path d="M0,0 L1,0 L2,37 L8,37 L10,39 L9,40 L0,40 Z " fill="#7B00B7" transform="translate(196,201)"/>
<path d="M0,0 L7,1 L7,9 L6,15 L5,15 L4,5 L-10,7 L-7,4 L-1,1 Z " fill="#7066F9" transform="translate(369,163)"/>
<path d="M0,0 L8,1 L17,5 L19,8 L3,4 L2,15 L1,15 L0,9 Z " fill="#743CE2" transform="translate(22,158)"/>
<path d="M0,0 L14,6 L21,9 L21,10 L16,10 L16,8 L6,6 L6,8 L-3,5 L-10,3 L-6,2 L1,4 Z " fill="#380150" transform="translate(134,128)"/>
<path d="M0,0 L28,0 L37,1 L37,2 L3,2 L0,5 L-2,5 L-3,14 L-4,16 L-5,15 L-5,6 L-4,3 Z " fill="#29BCFE" transform="translate(251,47)"/>
<path d="M0,0 L5,2 L11,5 L11,7 L3,6 L2,11 L0,15 L-2,15 L-1,8 Z " fill="#2F002A" transform="translate(146,279)"/>
<path d="M0,0 L5,1 L6,2 L6,59 L3,58 L5,57 L5,3 L1,2 Z " fill="#39016D" transform="translate(184,241)"/>
<path d="M0,0 L1,0 L1,56 L-1,55 L-1,52 L-3,52 L-3,48 L0,48 Z " fill="#7F21E7" transform="translate(188,177)"/>
<path d="M0,0 L9,0 L14,3 L12,4 L4,3 L3,7 L0,8 L-2,18 L-3,18 L-3,1 Z " fill="#7356F1" transform="translate(20,104)"/>
<path d="M0,0 L2,0 L0,4 L-7,10 L-10,10 L-11,4 L-8,1 Z " fill="#7905B3" transform="translate(220,352)"/>
<path d="M0,0 L4,2 L9,4 L9,6 L22,5 L27,3 L28,1 L30,2 L25,7 L19,9 L10,9 L5,5 Z " fill="#17D5FE" transform="translate(109,293)"/>
<path d="M0,0 L1,0 L0,15 L-11,23 L-15,25 L-15,22 L-12,22 L-10,18 L-7,18 L-5,14 L-2,7 Z " fill="#6B33EE" transform="translate(310,275)"/>
<path d="M0,0 L10,2 L17,6 L17,9 L8,7 L8,5 L-2,4 L-2,9 L-3,9 L-3,3 L0,2 Z " fill="#330442" transform="translate(34,207)"/>
<path d="M0,0 L10,0 L10,2 L2,3 L0,8 L-4,13 L-5,17 L-8,17 L-6,11 L-4,6 L-2,6 L-1,1 Z " fill="#4097F3" transform="translate(80,201)"/>
<path d="M0,0 L5,2 L9,5 L8,9 L8,6 L-1,6 L-4,6 L-12,9 L-16,8 L-3,2 Z " fill="#60007A" transform="translate(273,130)"/>
<path d="M0,0 L1,0 L1,42 L-2,47 L-7,47 L-8,45 L-3,45 L-2,40 L-1,37 Z " fill="#600185" transform="translate(205,318)"/>
<path d="M0,0 L1,4 L-1,9 L-2,18 L-3,18 L-4,11 L-6,18 L-6,24 L-13,19 L-11,18 L-9,19 L-10,15 L-8,16 L-5,7 Z " fill="#3E0368" transform="translate(137,300)"/>
<path d="M0,0 L4,0 L4,2 L2,2 L1,7 L-6,13 L-8,13 L-7,6 Z " fill="#8838E2" transform="translate(327,285)"/>
<path d="M0,0 L1,0 L1,19 L-8,16 L-18,9 L-19,6 L-14,8 L-9,12 L0,15 Z " fill="#725BF3" transform="translate(80,256)"/>
<path d="M0,0 L4,2 L10,10 L11,14 L8,13 L6,15 L1,8 Z " fill="#2F0238" transform="translate(66,169)"/>
<path d="M0,0 L5,1 L12,3 L23,9 L31,12 L27,13 L19,10 L14,7 L1,3 L0,7 Z " fill="#560B95" transform="translate(21,155)"/>
<path d="M0,0 L3,1 L-9,6 L-27,12 L-27,9 L-8,2 Z " fill="#2158F1" transform="translate(167,109)"/>
<path d="M0,0 L6,2 L7,0 L9,2 L8,4 L14,6 L17,9 L17,11 L20,12 L16,13 L12,9 L4,6 L4,4 L2,4 Z " fill="#4A035D" transform="translate(148,222)"/>
<path d="M0,0 L7,2 L11,8 L11,21 L9,27 L8,27 L9,9 L7,9 L0,1 Z " fill="#4A9AF7" transform="translate(63,178)"/>
<path d="M0,0 L6,1 L14,5 L14,7 L22,7 L25,8 L25,10 L13,9 L6,6 L6,3 L0,1 Z " fill="#722ECE" transform="translate(163,166)"/>
<path d="M0,0 L1,0 L1,11 L2,14 L5,13 L6,10 L8,15 L7,16 L7,21 L0,15 L-10,12 L-12,10 L-3,11 L0,10 Z " fill="#38014A" transform="translate(60,155)"/>
<path d="M0,0 L6,2 L6,4 L9,5 L11,7 L15,8 L17,14 L14,14 L14,11 L10,10 L3,7 L3,5 L1,5 Z " fill="#7A54E3" transform="translate(156,346)"/>
<path d="M0,0 L0,3 L-10,11 L-19,16 L-23,15 L-8,5 Z " fill="#310033" transform="translate(260,327)"/>
<path d="M0,0 L2,1 L-5,9 L-9,16 L-11,16 L-12,22 L-14,22 L-14,16 L-6,5 L-3,1 Z " fill="#4388EE" transform="translate(269,267)"/>
<path d="M0,0 L2,0 L2,56 L1,56 L0,6 L-1,2 L-3,1 Z " fill="#7302AD" transform="translate(205,247)"/>
<path d="M0,0 L1,0 L1,12 L-1,26 L-4,34 L-7,36 L-4,26 Z " fill="#6F62FD" transform="translate(269,224)"/>
<path d="M0,0 L12,0 L11,28 L10,28 L9,11 L7,7 L8,1 L0,1 Z " fill="#7C01B6" transform="translate(197,170)"/>
<path d="M0,0 L8,0 L20,5 L21,6 L31,7 L31,8 L18,8 L0,1 Z " fill="#18CFE8" transform="translate(237,112)"/>
<path d="M0,0 L8,1 L18,4 L14,7 L12,7 L12,9 L10,8 L8,6 L1,4 L1,2 L-1,1 Z " fill="#39013B" transform="translate(317,94)"/>
<path d="M0,0 L13,0 L9,2 L5,6 L5,8 L-1,6 L-5,3 L-5,1 Z " fill="#25CBF7" transform="translate(162,21)"/>
<path d="M0,0 L2,0 L0,22 L-2,46 L-3,46 L-3,23 L-1,14 L0,3 L-2,2 Z " fill="#4E0F93" transform="translate(274,209)"/>
<path d="M0,0 L6,1 L21,7 L22,10 L13,7 L6,5 L-1,4 L-3,3 L-3,1 Z " fill="#7D1DD4" transform="translate(151,216)"/>
<path d="M0,0 L4,2 L-6,9 L-14,8 L-20,6 L-16,5 L-8,4 L0,3 Z " fill="#7A41F2" transform="translate(345,90)"/>
<path d="M0,0 L13,0 L19,1 L19,3 L13,4 L8,3 L8,5 L11,5 L11,7 L2,4 Z " fill="#0EE1F7" transform="translate(168,27)"/>
<path d="M0,0 L15,1 L21,3 L30,4 L32,6 L12,5 L7,4 L7,2 L0,1 Z " fill="#3B9FFB" transform="translate(204,15)"/>
<path d="M0,0 L3,1 L3,14 L-2,13 L-7,7 L-11,5 L-12,2 L-6,4 L-6,6 L-2,7 L1,9 L2,2 L0,2 Z " fill="#742BD7" transform="translate(186,365)"/>
<path d="M0,0 L9,3 L18,6 L20,8 L14,7 L8,6 L8,8 L10,9 L4,8 L-4,5 L0,4 L5,6 L4,3 L0,1 Z " fill="#4B0882" transform="translate(83,189)"/>
</svg>
