<svg viewBox="0 0 668 359" xmlns="http://www.w3.org/2000/svg" fill-rule="evenodd" clip-rule="evenodd" stroke-linejoin="round" stroke-miterlimit="2"><path fill="none" d="M0 0h668v359H0z"/><g fill-rule="nonzero"><path d="M107.393 16.088v56.908c.008.004.008.004.012.004 4.703-.333 9.562-.508 14.57-.508 37.891 0 65.919 5.717 89.797 26.996l-30.482 53.05c-.017-.004-.038-.013-.059-.021 23.441 10.775 39.754 34.404 39.754 61.892 0 25.808-14.346 48.254-35.499 59.825l28.878 53.641c-11.246 10.592-26.528 19.892-47.269 25.263 8.528 1.317 17.878 1.908 28.024 1.908 31.141 0 49.827-8.308 61.244-13.5l-10.817-65.962.221-.079-24.478-124.459h38.136V76.301h-49.778V0L107.393 16.088z" fill="url(#_Linear1)"/><path d="M0 213.167c0 99.138 37.37 144.817 126.125 144.817 15.612 0 29.153-1.792 40.945-4.833-38.166-5.905-59.677-26.721-59.677-78.042V265.1c-13.904-12.475-22.704-30.533-22.704-50.691 0-20.154 8.8-38.213 22.712-50.688h-.008v-12.675H84.039V76.388C28.232 88.967 0 132.663 0 213.167z" fill="url(#_Linear2)"/><path d="M107.393 275.109c0 51.321 21.511 72.137 59.677 78.042 20.753-5.375 36.044-14.684 47.294-25.276l-28.878-53.641c-.263.141-.534.266-.796.404a69.068 69.068 0 01-4.479 2.158c-.488.217-.963.429-1.463.634a69.69 69.69 0 01-5.237 1.92c-.413.13-.838.238-1.25.363a65.587 65.587 0 01-4.941 1.267c-.358.083-.708.179-1.071.245a68.561 68.561 0 01-5.842.896c-.454.046-.908.088-1.362.125-2.05.188-4.117.313-6.213.313-2.262 0-4.495-.121-6.695-.334-.946-.095-1.859-.274-2.788-.395-1.225-.175-2.458-.321-3.667-.563-1.216-.233-2.407-.562-3.607-.866-.85-.213-1.708-.409-2.55-.659-1.396-.408-2.754-.9-4.112-1.4-.588-.212-1.175-.408-1.742-.642-1.517-.6-2.996-1.279-4.463-1.987-.358-.175-.72-.338-1.075-.521a69.423 69.423 0 01-4.658-2.6c-.196-.121-.379-.229-.571-.35a66.085 66.085 0 01-4.7-3.208 3.038 3.038 0 00-.204-.15 67.175 67.175 0 01-4.607-3.784v10.009z" fill="url(#_Linear3)"/><path d="M107.393 73v.005c-3.775.266-7.429.675-11.004 1.162-.471.067-.95.125-1.421.196-3.421.5-6.746 1.108-9.988 1.812-.312.067-.629.146-.941.213v74.658h23.354v12.675a67.34 67.34 0 014.607-3.775c.067-.058.138-.104.204-.154a67.5 67.5 0 014.7-3.212c.192-.121.375-.23.571-.346a66.095 66.095 0 014.658-2.604c.355-.184.717-.346 1.075-.521a70.772 70.772 0 014.463-1.996c.567-.221 1.154-.417 1.733-.629 1.367-.5 2.725-.996 4.121-1.409.842-.245 1.7-.437 2.55-.654 1.2-.3 2.391-.625 3.607-.862 1.209-.242 2.442-.388 3.667-.563.929-.129 1.842-.304 2.788-.4 2.2-.212 4.433-.337 6.695-.337 2.138 0 4.242.125 6.33.316.312.034.637.05.954.088 1.787.192 3.546.471 5.287.804.667.125 1.338.25 2.009.392 1.407.316 2.811.679 4.19 1.083.988.279 1.971.583 2.946.913.158.05.317.12.479.175a67.425 67.425 0 016.204 2.487c.021.008.042.017.059.021l30.482-53.05c-23.878-21.279-51.906-26.996-89.797-26.996-5.012 0-9.871.175-14.582.508z" fill="url(#_Linear4)"/><path d="M479.301 271.415h61.327v-26.479h-29.674V165.34h-31.653v106.075zm-111.776 0h32.724l5.934-42.612c1.371-9.125 1.521-20.542 1.671-28h.154c.304 7.15.604 18.875 1.975 27.696l6.245 42.916h31.799l20.091-106.075h-30.74l-3.959 23.896c-2.587 15.825-2.587 37.284-2.741 45.35h-.15c-.759-13.391-1.98-29.525-3.805-42.458l-3.804-26.788h-27.695l-4.262 27.246c-2.283 14.759-3.2 31.65-3.5 42h-.15c0-7.608-.608-28.154-3.35-45.5l-3.803-23.746h-32.87l20.236 106.075zm-67.783 1.978c29.978 0 43.978-18.108 43.978-54.938 0-37.437-13.392-55.091-43.524-55.091-30.283 0-44.89 17.5-44.89 54.941 0 36.825 14.607 55.088 44.436 55.088m-.155-24.958c-9.132 0-11.111-6.388-11.111-30.742 0-23.588 1.979-29.521 11.111-29.521 9.134 0 11.109 5.025 11.109 28.454 0 24.809-1.975 31.809-11.109 31.809M633.414 98.433V73.621h-20.795v77.592h20.795v-39.692c.95-.742 2.112-1.267 3.696-1.267 1.583 0 3.487.742 3.487 3.8v37.159h20.791v-40.538c0-11.612-5.803-16.15-15.62-16.15-5.279 0-9.296 1.692-12.354 3.908m-42.22 54.153c8.761 0 14.353-2.746 17.945-6.125l-7.392-13.721c-2.221 1.9-4.749 3.588-8.228 3.588-4.65 0-6.233-1.896-6.233-13.617 0-10.554 1.795-11.821 5.808-11.821 2.529 0 5.382 1.054 7.386 3.267l8.13-14.142c-4.859-4.329-10.554-5.492-18.266-5.492-16.467 0-24.803 8.871-24.803 28.613 0 20.162 7.599 29.45 25.653 29.45m-57.003-22.591h27.658v-3.904c0-23.225-6.967-31.563-23.863-31.563-14.141 0-25.224 7.917-25.224 28.708 0 20.696 8.442 29.35 28.078 29.35 9.921 0 16.046-2.958 20.163-5.487l-6.338-13.3c-2.633 1.687-7.491 3.479-12.241 3.479-5.699 0-7.708-1.158-8.233-7.283m-.212-11.613c.212-7.491.95-9.604 4.54-9.604 3.905 0 3.692 4.221 4.009 9.604h-8.549zm-54.678 32.831h21.958V95.688h13.72v-18.05h-49.398v18.05h13.72v55.525zm-37.219-21.218h27.657v-3.904c0-23.225-6.971-31.563-23.858-31.563-14.145 0-25.228 7.917-25.228 28.708 0 20.696 8.441 29.35 28.078 29.35 9.925 0 16.046-2.958 20.166-5.487l-6.337-13.3c-2.642 1.687-7.496 3.479-12.246 3.479-5.699 0-7.703-1.158-8.232-7.283m-.213-11.613c.213-7.491.95-9.604 4.541-9.604 3.904 0 3.692 4.221 4.008 9.604h-8.549zm-58.162 32.831h20.792v-36.63c.633-.42 2.325-1.162 5.175-1.162 2.641 0 5.169.95 6.757 2.112L419.81 95.9c-1.271-.421-3.487-.846-6.016-.846-4.541 0-8.662 2.004-11.612 5.488l-1.163-4.642h-17.312v55.313zm-28.122-34.412h-3.166c-14.57 0-23.12 4.642-23.12 17.525 0 10.45 3.804 18.258 16.258 18.258 6.442 0 10.236-2.533 12.77-5.383l1.587 4.012h16.15v-37.475c0-14.145-6.441-19.212-22.062-19.212-9.816 0-18.262 2.642-24.174 6.437l7.071 14.255c3.8-2.217 8.554-4.33 14.041-4.33 3.162 0 4.645 1.371 4.645 4.855v1.058zm0 21.637c-.846.53-1.692.742-2.745.742-2.637 0-3.483-1.162-3.483-5.175 0-4.117.95-5.804 5.278-5.804h.95v10.237zm-47.713 14.148c9.5 0 15.724-3.058 19.74-6.967l-8.34-15.204c-2.43 2.429-5.171 4.117-9.5 4.117-6.546 0-9.396-2.321-9.396-21.638 0-16.15 2.637-18.683 9.183-18.683 4.121 0 6.967 1.583 9.713 3.904l7.919-15.833c-3.487-3.059-9.29-6.017-19.953-6.017-18.474 0-30.403 7.813-30.403 37.788 0 25.762 7.283 38.533 31.037 38.533" fill="#484a51"/></g><defs><linearGradient id="_Linear1" x1="0" y1="0" x2="1" y2="0" gradientUnits="userSpaceOnUse" gradientTransform="matrix(0 355.046 -355.034 0 183.411 -.002)"><stop offset="0" stop-color="#a0af00"/><stop offset="1" stop-color="#009ac2"/></linearGradient><linearGradient id="_Linear2" x1="0" y1="0" x2="1" y2="0" gradientUnits="userSpaceOnUse" gradientTransform="matrix(0 281.594 -281.585 0 83.536 76.39)"><stop offset="0" stop-color="#d1007b"/><stop offset="1" stop-color="#ef8400"/></linearGradient><linearGradient id="_Linear3" x1="0" y1="0" x2="1" y2="0" gradientUnits="userSpaceOnUse" gradientTransform="matrix(0 88.0432 -88.0403 0 160.938 265.186)"><stop offset="0" stop-color="#52205d"/><stop offset="1" stop-color="#215925"/></linearGradient><linearGradient id="_Linear4" x1="0" y1="0" x2="1" y2="0" gradientUnits="userSpaceOnUse" gradientTransform="matrix(0 91.2231 -91.2201 0 147.906 72.496)"><stop offset="0" stop-color="#9c2e4c"/><stop offset="1" stop-color="#73612b"/></linearGradient></defs></svg>