<svg xmlns="http://www.w3.org/2000/svg" xml:space="preserve" id="Ebene_1" x="0" y="0" version="1.1" viewBox="0 0 566.2 241.6">
  <style>
    .st0{fill:#0f0a87}.st1{fill:#0fbeff}
  </style>
  <g id="Ebene_2_00000162322628997652853530000012658778185289266313_">
    <path d="M44.6 164c-9 0-17.7-1.2-26.1-3.6-6-1.8-11.2-3.9-15.5-6.4-2.7-1.6-3.8-4.9-2.5-7.7l3.9-8.7c1.4-3.2 5.3-4.5 8.4-2.8 3.5 1.9 7.3 3.5 11.5 4.9 6.7 2.2 13.4 3.3 20.2 3.3 5.2 0 9.3-.5 12.5-1.6s5.5-2.5 7-4.3c1.5-1.8 2.3-3.8 2.3-6.2 0-3-1.2-5.4-3.6-7.2-2.4-1.8-5.5-3.2-9.4-4.4-3.9-1.1-8.2-2.2-12.8-3.2s-9.3-2.3-13.9-3.7c-4.7-1.5-9-3.4-12.9-5.8-3.9-2.4-7.1-5.6-9.4-9.5C2 93.2.8 88.3.8 82.3.8 75.8 2.5 70 6 64.6c3.4-5.3 8.7-9.6 15.7-12.7 7-3.2 15.9-4.8 26.5-4.8 7.1 0 14.1.9 21.1 2.6 4.8 1.2 9.1 2.7 13.1 4.6 2.9 1.4 4.2 4.8 3 7.8l-3.6 8.7c-1.3 3.2-5 4.5-8.1 3.1-3.3-1.5-6.6-2.7-10-3.6-5.4-1.5-10.5-2.2-15.5-2.2-5.2 0-9.3.6-12.4 1.7-3.1 1.1-5.4 2.7-6.9 4.6-1.5 1.9-2.2 4.1-2.2 6.5 0 3 1.2 5.4 3.6 7.3 2.4 1.8 5.5 3.3 9.4 4.3s8.2 2 12.9 3.1c4.7 1 9.4 2.3 14 3.8s8.9 3.4 12.7 5.7c3.9 2.3 7 5.4 9.4 9.4 2.4 3.9 3.6 8.8 3.6 14.6 0 6.3-1.7 12.2-5.2 17.4-3.5 5.3-8.8 9.5-15.9 12.7-7.1 3.2-15.9 4.8-26.6 4.8z" class="st0"/>
    <path d="M214.9 153.5 169.6 52.6c-1-2.2-3.1-3.6-5.5-3.6h-18c-2.4 0-4.5 1.4-5.5 3.6L95.8 153.5c-1.8 4 1.1 8.5 5.5 8.5h13.5c2.4 0 4.6-1.5 5.6-3.7l8.5-20.5h52.3l8.5 20.5c.9 2.2 3.1 3.7 5.6 3.7h14.1c4.3 0 7.3-4.5 5.5-8.5zM137.1 118 155 74.9l17.9 43.1h-35.8zm91.3 38V55.1c0-3.3 2.7-6 6-6h14.3c3.3 0 6 2.7 6 6V156c0 3.3-2.7 6-6 6h-14.3c-3.3 0-6-2.7-6-6z" class="st1"/>
    <path d="M269.5 156V55.1c0-3.3 2.7-6 6-6h14.3c3.3 0 6 2.7 6 6v85.6h50.3c3.3 0 6 2.7 6 6v9.3c0 3.3-2.7 6-6 6h-70.6c-3.3 0-6-2.7-6-6z" class="st0"/>
    <path d="M9.9 209.2c-1.2 0-2.4-.2-3.6-.6-1.1-.4-2-.9-2.7-1.5l.9-1.8c.6.5 1.4 1 2.4 1.3 1 .4 2 .5 3 .5.9 0 1.7-.1 2.3-.3s1-.5 1.3-.9.4-.8.4-1.3c0-.6-.2-1-.5-1.4-.4-.3-.8-.6-1.4-.8s-1.2-.4-1.9-.5c-.7-.2-1.4-.3-2.1-.5-.7-.2-1.3-.5-1.9-.8-.6-.3-1.1-.8-1.4-1.3-.4-.6-.5-1.3-.5-2.1s.2-1.6.7-2.3c.4-.7 1.1-1.3 2-1.7s2.1-.6 3.5-.6c.9 0 1.9.1 2.8.4.9.2 1.7.6 2.4 1.1l-.8 1.9c-.7-.5-1.4-.8-2.2-1s-1.5-.3-2.3-.3c-.9 0-1.7.1-2.3.3s-1 .5-1.3.9-.4.8-.4 1.3c0 .6.2 1 .5 1.4.4.3.8.6 1.4.8s1.2.4 1.9.5c.7.2 1.4.3 2.1.5.7.2 1.3.5 1.9.8.6.3 1.1.8 1.4 1.3.4.5.5 1.2.5 2.1 0 .8-.2 1.6-.7 2.3s-1.1 1.3-2.1 1.7c-.7.4-1.8.6-3.3.6zm16.5 0c-2.1 0-3.8-.6-5.1-1.8-1.2-1.2-1.8-3-1.8-5.4v-9.3h2.3v9.2c0 1.8.4 3.1 1.2 4 .8.8 1.9 1.3 3.4 1.3s2.6-.4 3.4-1.3c.8-.8 1.2-2.2 1.2-4v-9.2h2.3v9.3c0 2.4-.6 4.2-1.8 5.4-1.3 1.2-3 1.8-5.1 1.8zm16.4 0c-1.2 0-2.4-.2-3.6-.6-1.1-.4-2-.9-2.7-1.5l.9-1.8c.6.5 1.4 1 2.4 1.3 1 .4 2 .5 3 .5.9 0 1.7-.1 2.3-.3s1-.5 1.3-.9.4-.8.4-1.3c0-.6-.2-1-.5-1.4-.4-.3-.8-.6-1.4-.8s-1.2-.4-1.9-.5c-.7-.2-1.4-.3-2.1-.5-.7-.2-1.3-.5-1.9-.8-.6-.3-1.1-.8-1.4-1.3-.4-.6-.5-1.3-.5-2.1s.2-1.6.7-2.3c.4-.7 1.1-1.3 2-1.7s2.1-.6 3.5-.6c.9 0 1.9.1 2.8.4.9.2 1.7.6 2.4 1.1l-.8 1.9c-.7-.5-1.4-.8-2.2-1s-1.5-.3-2.3-.3c-.9 0-1.7.1-2.3.3s-1 .5-1.3.9-.4.8-.4 1.3c0 .6.2 1 .5 1.4.4.3.8.6 1.4.8s1.2.4 1.9.5c.7.2 1.4.3 2.1.5.7.2 1.3.5 1.9.8.6.3 1.1.8 1.4 1.3.4.5.5 1.2.5 2.1 0 .8-.2 1.6-.7 2.3s-1.1 1.3-2.1 1.7c-.7.4-1.9.6-3.3.6zm12.7-.2v-14.3h-5.6v-2h13.5v2h-5.6V209h-2.3zm7.1 0 7.4-16.3h2.3l7.4 16.3h-2.4l-6.6-15h.9L65 209h-2.4zm3.2-4.1.6-1.9h9.2l.7 1.9H65.8zm16.4 4.1v-16.3h2.3V209h-2.3zm7.2 0v-16.3h1.9l10.8 13.4h-1v-13.4h2.3V209h-1.9l-10.8-13.4h1V209h-2.3zm16.4 0 7.4-16.3h2.3l7.4 16.3h-2.4l-6.6-15h.9l-6.6 15h-2.4zm3.1-4.1.6-1.9h9.2l.7 1.9h-10.5zm16.4 4.1v-16.3h7.3c1.9 0 3.3.4 4.3 1.1 1 .8 1.5 1.8 1.5 3.1 0 .9-.2 1.6-.6 2.2-.4.6-.9 1.1-1.6 1.4-.7.3-1.4.5-2.2.5l.4-.7c.9 0 1.8.2 2.5.5s1.3.8 1.7 1.4.6 1.4.6 2.3c0 1.4-.5 2.5-1.6 3.2s-2.6 1.2-4.7 1.2l-7.6.1zm2.3-1.9h5.4c1.3 0 2.3-.2 3-.7.7-.4 1-1.1 1-2s-.3-1.6-1-2.1c-.7-.4-1.7-.7-3-.7h-5.6v-1.8h5c1.2 0 2.1-.2 2.7-.7.7-.4 1-1.1 1-2s-.3-1.5-1-2c-.7-.4-1.6-.7-2.7-.7h-4.8v12.7zm15.3 1.9v-16.3h2.3V207h8.8v2h-11.1zm16.2-2h9.5v2h-11.8v-16.3h11.5v2h-9.2V207zm-.2-7.3h8.4v2h-8.4v-2zm19.7 9.3v-16.3h2.3V207h8.8v2h-11.1zm13.8 0v-16.3h2.3V209h-2.3zm9.6 0h-2.3v-16.3h11.4v2h-9.2V209h.1zm-.3-8.6h8.4v2h-8.4v-2zm15.1 6.6h9.5v2h-11.8v-16.3H226v2h-9.2V207zm-.3-7.3h8.4v2h-8.4v-2zm12.6 2v-1.9h6.3v1.9h-6.3zm17.7 7.5c-1.2 0-2.4-.2-3.4-.6-1-.4-2-1-2.7-1.7-.8-.8-1.4-1.6-1.8-2.6-.4-1-.7-2.1-.7-3.3s.2-2.3.7-3.3c.4-1 1-1.9 1.8-2.6.8-.8 1.7-1.3 2.7-1.7s2.2-.6 3.4-.6c1.3 0 2.4.2 3.5.6 1.1.4 2 1.1 2.7 1.9l-1.5 1.5c-.6-.7-1.3-1.1-2.1-1.5-.8-.3-1.6-.5-2.5-.5s-1.8.2-2.5.5c-.8.3-1.5.7-2 1.3-.6.6-1 1.2-1.3 2s-.5 1.6-.5 2.5.2 1.7.5 2.5.8 1.4 1.3 2c.6.6 1.3 1 2 1.3.8.3 1.6.5 2.5.5s1.7-.2 2.5-.5 1.5-.8 2.1-1.5l1.5 1.5c-.7.8-1.6 1.5-2.7 1.9-1 .1-2.2.4-3.5.4zm13.2-.2v-6.2l.5 1.4-7-11.5h2.5l5.9 9.7h-1.3l5.9-9.7h2.3l-7 11.5.5-1.4v6.2H260zm17.8.2c-1.2 0-2.4-.2-3.4-.6-1-.4-2-1-2.7-1.7-.8-.8-1.4-1.6-1.8-2.6-.4-1-.7-2.1-.7-3.3s.2-2.3.7-3.3c.4-1 1-1.9 1.8-2.6.8-.8 1.7-1.3 2.7-1.7s2.2-.6 3.4-.6c1.3 0 2.4.2 3.5.6 1.1.4 2 1.1 2.7 1.9l-1.5 1.5c-.6-.7-1.3-1.1-2.1-1.5-.8-.3-1.6-.5-2.5-.5s-1.8.2-2.5.5c-.8.3-1.5.7-2 1.3-.6.6-1 1.2-1.3 2s-.5 1.6-.5 2.5.2 1.7.5 2.5.8 1.4 1.3 2c.6.6 1.3 1 2 1.3.8.3 1.6.5 2.5.5s1.7-.2 2.5-.5 1.5-.8 2.1-1.5l1.5 1.5c-.7.8-1.6 1.5-2.7 1.9-1.1.1-2.3.4-3.5.4zm9.5-.2v-16.3h2.3V207h8.8v2h-11.1zm16.2-2h9.5v2h-11.9v-16.3h11.5v2h-9.2V207h.1zm-.3-7.3h8.4v2h-8.4v-2zm27.1 9.5c-1.2 0-2.4-.2-3.5-.6-1.1-.4-2-1-2.8-1.8s-1.4-1.6-1.8-2.6c-.4-1-.7-2.1-.7-3.3s.2-2.3.7-3.3c.4-1 1-1.9 1.8-2.6.8-.8 1.7-1.3 2.7-1.8 1.1-.4 2.2-.6 3.5-.6 1.2 0 2.4.2 3.4.6 1.1.4 2 1 2.7 1.7.8.8 1.4 1.6 1.8 2.7.4 1 .6 2.1.6 3.3s-.2 2.3-.6 3.3c-.4 1-1 1.9-1.8 2.6-.8.8-1.7 1.3-2.7 1.7-.9.5-2 .7-3.3.7zm0-2.1c.9 0 1.8-.2 2.5-.5s1.4-.7 2-1.3 1-1.2 1.3-2 .5-1.6.5-2.5-.2-1.7-.5-2.5-.8-1.4-1.3-2c-.6-.6-1.2-1-2-1.3s-1.6-.5-2.5-.5-1.7.2-2.5.5-1.4.8-2 1.3c-.6.6-1 1.2-1.3 2s-.5 1.6-.5 2.5.2 1.7.5 2.5.8 1.4 1.3 2c.6.6 1.2 1 2 1.3s1.6.5 2.5.5zm14.6 1.9h-2.3v-16.3h11.5v2h-9.2V209zm-.3-8.6h8.4v2h-8.4v-2zm-338.9 41v-16.3H8v16.3H5.7zm7.2 0v-16.3h1.9l10.8 13.4h-1v-13.4h2.3v16.3H25L14.2 228h1v13.4h-2.3zm22.1 0v-14.3h-5.6v-2h13.5v2h-5.6v14.3H35zm12.8-2h9.5v2H45.5v-16.3H57v2h-9.2v12.3zm-.2-7.2H56v2h-8.4v-2zm13.5 9.2v-16.3h2.3v14.3h8.8v2H61.1zm13.8 0v-16.3h2.3v14.3H86v2H74.9zm13.8 0v-16.3H91v16.3h-2.3zm14.6.2c-1.3 0-2.4-.2-3.5-.6-1.1-.4-2-1-2.7-1.7-.8-.8-1.4-1.6-1.8-2.6-.4-1-.7-2.1-.7-3.3s.2-2.3.7-3.3c.4-1 1-1.9 1.8-2.6.8-.8 1.7-1.3 2.8-1.7s2.2-.6 3.5-.6 2.5.2 3.5.6 2 1 2.7 1.9l-1.4 1.4c-.7-.7-1.4-1.1-2.2-1.4-.8-.3-1.6-.5-2.5-.5s-1.8.2-2.6.5-1.5.7-2.1 1.3-1 1.2-1.3 2-.5 1.6-.5 2.5.2 1.7.5 2.5.8 1.4 1.3 2c.6.6 1.3 1 2.1 1.3s1.7.5 2.6.5c.9 0 1.7-.1 2.5-.4.8-.3 1.5-.7 2.2-1.4l1.3 1.8c-.8.7-1.7 1.2-2.8 1.5-1.2.1-2.3.3-3.4.3zm3.9-2.4v-6.1h2.2v6.4l-2.2-.3zm9 .2h9.5v2h-11.8v-16.3h11.5v2h-9.2v12.3zm-.2-7.2h8.4v2H116v-2zm13.5 9.2v-16.3h1.9l10.8 13.4h-1v-13.4h2.3v16.3h-1.9L130.8 228h1v13.4h-2.3zm22.1 0v-14.3H146v-2h13.5v2h-5.6v14.3h-2.3zm24.4.2c-1.2 0-2.4-.2-3.6-.6-1.1-.4-2-.9-2.7-1.5l.9-1.8c.6.5 1.4 1 2.4 1.3 1 .4 2 .5 3 .5.9 0 1.7-.1 2.3-.3s1-.5 1.3-.9.4-.8.4-1.3c0-.6-.2-1-.5-1.4-.4-.3-.8-.6-1.4-.8s-1.2-.4-1.9-.5c-.7-.2-1.4-.3-2.1-.5-.7-.2-1.3-.5-1.9-.8-.6-.3-1.1-.8-1.4-1.3-.4-.6-.5-1.3-.5-2.1s.2-1.6.7-2.3c.4-.7 1.1-1.3 2-1.7s2.1-.6 3.5-.6c.9 0 1.9.1 2.8.4.9.2 1.7.6 2.4 1.1l-.8 1.9c-.7-.5-1.4-.8-2.2-1s-1.5-.3-2.3-.3c-.9 0-1.7.1-2.3.3s-1 .5-1.3.9-.4.8-.4 1.3c0 .6.2 1 .5 1.4.4.3.8.6 1.4.8s1.2.4 1.9.5c.7.2 1.4.3 2.1.5.7.2 1.3.5 1.9.8.6.3 1.1.8 1.4 1.3.4.5.5 1.2.5 2.1 0 .8-.2 1.6-.7 2.3s-1.1 1.3-2.1 1.7c-.7.4-1.9.6-3.3.6zm17 0c-1.2 0-2.4-.2-3.5-.6-1.1-.4-2-1-2.8-1.8s-1.4-1.6-1.8-2.6c-.4-1-.7-2.1-.7-3.3s.2-2.3.7-3.3c.4-1 1-1.9 1.8-2.6.8-.8 1.7-1.3 2.7-1.8 1.1-.4 2.2-.6 3.5-.6 1.2 0 2.4.2 3.4.6 1.1.4 2 1 2.7 1.7.8.8 1.4 1.6 1.8 2.7.4 1 .6 2.1.6 3.3s-.2 2.3-.6 3.3c-.4 1-1 1.9-1.8 2.6-.8.8-1.7 1.3-2.7 1.7-.9.5-2 .7-3.3.7zm0-2.1c.9 0 1.8-.2 2.5-.5s1.4-.7 2-1.3 1-1.2 1.3-2 .5-1.6.5-2.5-.2-1.7-.5-2.5-.8-1.4-1.3-2c-.6-.6-1.2-1-2-1.3s-1.6-.5-2.5-.5-1.7.2-2.5.5-1.4.8-2 1.3c-.6.6-1 1.2-1.3 2s-.5 1.6-.5 2.5.2 1.7.5 2.5.8 1.4 1.3 2c.6.6 1.2 1 2 1.3s1.6.5 2.5.5zm19.5 2.1c-1.2 0-2.4-.2-3.4-.6-1-.4-2-1-2.7-1.7-.8-.8-1.4-1.6-1.8-2.6-.4-1-.7-2.1-.7-3.3s.2-2.3.7-3.3c.4-1 1-1.9 1.8-2.6.8-.8 1.7-1.3 2.7-1.7s2.2-.6 3.4-.6c1.3 0 2.4.2 3.5.6 1.1.4 2 1.1 2.7 1.9l-1.5 1.5c-.6-.7-1.3-1.1-2.1-1.5-.8-.3-1.6-.5-2.5-.5s-1.8.2-2.5.5c-.8.3-1.5.7-2 1.3-.6.6-1 1.2-1.3 2s-.5 1.6-.5 2.5.2 1.7.5 2.5.8 1.4 1.3 2c.6.6 1.3 1 2 1.3.8.3 1.6.5 2.5.5s1.7-.2 2.5-.5 1.5-.8 2.1-1.5l1.5 1.5c-.7.8-1.6 1.5-2.7 1.9-1 .2-2.2.4-3.5.4zm9.6-.2v-16.3h2.3v16.3h-2.3zm14.5.2c-1.2 0-2.4-.2-3.5-.6-1.1-.4-2-1-2.8-1.8s-1.4-1.6-1.8-2.6c-.4-1-.7-2.1-.7-3.3s.2-2.3.7-3.3c.4-1 1-1.9 1.8-2.6.8-.8 1.7-1.3 2.7-1.8 1.1-.4 2.2-.6 3.5-.6 1.2 0 2.4.2 3.4.6 1.1.4 2 1 2.7 1.7.8.8 1.4 1.6 1.8 2.7.4 1 .6 2.1.6 3.3s-.2 2.3-.6 3.3c-.4 1-1 1.9-1.8 2.6-.8.8-1.7 1.3-2.7 1.7-.9.5-2 .7-3.3.7zm0-2.1c.9 0 1.8-.2 2.5-.5s1.4-.7 2-1.3 1-1.2 1.3-2 .5-1.6.5-2.5-.2-1.7-.5-2.5-.8-1.4-1.3-2c-.6-.6-1.2-1-2-1.3s-1.6-.5-2.5-.5-1.7.2-2.5.5-1.4.8-2 1.3c-.6.6-1 1.2-1.3 2s-.5 1.6-.5 2.5.2 1.7.5 2.5.8 1.4 1.3 2c.6.6 1.2 1 2 1.3s1.6.5 2.5.5zm11.5-5.3v-1.9h6.3v1.9h-6.3zm13.1 7.2v-14.3h-5.6v-2h13.5v2h-5.6v14.3h-2.3zm12.8-2h9.5v2h-11.8v-16.3h11.4v2h-9.2v12.3h.1zm-.2-7.2h8.4v2h-8.4v-2zm20.7 9.4c-1.2 0-2.4-.2-3.4-.6-1-.4-2-1-2.7-1.7-.8-.8-1.4-1.6-1.8-2.6-.4-1-.7-2.1-.7-3.3s.2-2.3.7-3.3c.4-1 1-1.9 1.8-2.6.8-.8 1.7-1.3 2.7-1.7s2.2-.6 3.4-.6c1.3 0 2.4.2 3.5.6 1.1.4 2 1.1 2.7 1.9l-1.5 1.5c-.6-.7-1.3-1.1-2.1-1.5-.8-.3-1.6-.5-2.5-.5s-1.8.2-2.5.5c-.8.3-1.5.7-2 1.3-.6.6-1 1.2-1.3 2s-.5 1.6-.5 2.5.2 1.7.5 2.5.8 1.4 1.3 2c.6.6 1.3 1 2 1.3.8.3 1.6.5 2.5.5s1.7-.2 2.5-.5 1.5-.8 2.1-1.5l1.5 1.5c-.7.8-1.6 1.5-2.7 1.9-1.1.2-2.2.4-3.5.4zm11.9-.2h-2.3v-16.3h2.3v16.3zm9.5-7.2h-9.8v-2h9.8v2zm-.2-9.1h2.3v16.3h-2.3v-16.3zm7.2 16.3v-16.3h1.9l10.8 13.4h-1v-13.4h2.3v16.3H335L324.2 228h1v13.4h-2.3zm18.9 0v-16.3h2.3v16.3h-2.3zm14.5.2c-1.2 0-2.4-.2-3.4-.6-1-.4-2-1-2.7-1.7-.8-.8-1.4-1.6-1.8-2.6s-.7-2.1-.7-3.3.2-2.3.7-3.3c.4-1 1-1.9 1.8-2.6.8-.8 1.7-1.3 2.7-1.7s2.2-.6 3.4-.6c1.3 0 2.4.2 3.5.6 1.1.4 2 1.1 2.7 1.9l-1.5 1.5c-.6-.7-1.3-1.1-2.1-1.5-.8-.3-1.6-.5-2.5-.5s-1.8.2-2.5.5c-.8.3-1.5.7-2 1.3-.6.6-1 1.2-1.3 2s-.5 1.6-.5 2.5.2 1.7.5 2.5.8 1.4 1.3 2c.6.6 1.3 1 2 1.3.8.3 1.6.5 2.5.5s1.7-.2 2.5-.5 1.5-.8 2.1-1.5l1.5 1.5c-.7.8-1.6 1.5-2.7 1.9-1 .2-2.2.4-3.5.4zm6.7-.2 7.4-16.3h2.3l7.4 16.3h-2.4l-6.6-15h.9l-6.6 15H363zm3.2-4 .6-1.9h9.2l.7 1.9h-10.5zm16.3 4v-16.3h2.3v14.3h8.8v2h-11.1zm24.9.2c-1.2 0-2.4-.2-3.6-.6-1.1-.4-2-.9-2.7-1.5l.9-1.8c.6.5 1.4 1 2.4 1.3 1 .4 2 .5 3 .5.9 0 1.7-.1 2.3-.3.6-.2 1-.5 1.3-.9s.4-.8.4-1.3c0-.6-.2-1-.5-1.4-.4-.3-.8-.6-1.4-.8s-1.2-.4-1.9-.5c-.7-.2-1.4-.3-2.1-.5s-1.3-.5-1.9-.8-1.1-.8-1.4-1.3c-.4-.6-.5-1.3-.5-2.1s.2-1.6.7-2.3c.4-.7 1.1-1.3 2-1.7s2.1-.6 3.5-.6c.9 0 1.9.1 2.8.4.9.2 1.7.6 2.4 1.1l-.8 1.9c-.7-.5-1.4-.8-2.2-1-.8-.2-1.5-.3-2.3-.3-.9 0-1.7.1-2.3.3-.6.2-1 .5-1.3.9s-.4.8-.4 1.3c0 .6.2 1 .5 1.4.4.3.8.6 1.4.8s1.2.4 1.9.5c.7.2 1.4.3 2.1.5s1.3.5 1.9.8 1.1.8 1.4 1.3c.4.5.5 1.2.5 2.1 0 .8-.2 1.6-.7 2.3s-1.1 1.3-2.1 1.7c-.7.4-1.9.6-3.3.6zm13.3-.2v-6.2l.5 1.4-7-11.5h2.5l5.9 9.7h-1.3l5.9-9.7h2.3l-7 11.5.5-1.4v6.2h-2.3zm15.5.2c-1.2 0-2.4-.2-3.6-.6-1.1-.4-2-.9-2.7-1.5l.9-1.8c.6.5 1.4 1 2.4 1.3 1 .4 2 .5 3 .5.9 0 1.7-.1 2.3-.3.6-.2 1-.5 1.3-.9s.4-.8.4-1.3c0-.6-.2-1-.5-1.4-.4-.3-.8-.6-1.4-.8s-1.2-.4-1.9-.5c-.7-.2-1.4-.3-2.1-.5s-1.3-.5-1.9-.8-1.1-.8-1.4-1.3c-.4-.6-.5-1.3-.5-2.1s.2-1.6.7-2.3c.4-.7 1.1-1.3 2-1.7s2.1-.6 3.5-.6c.9 0 1.9.1 2.8.4.9.2 1.7.6 2.4 1.1l-.8 1.9c-.7-.5-1.4-.8-2.2-1-.8-.2-1.5-.3-2.3-.3-.9 0-1.7.1-2.3.3-.6.2-1 .5-1.3.9s-.4.8-.4 1.3c0 .6.2 1 .5 1.4.4.3.8.6 1.4.8s1.2.4 1.9.5c.7.2 1.4.3 2.1.5s1.3.5 1.9.8 1.1.8 1.4 1.3c.4.5.5 1.2.5 2.1 0 .8-.2 1.6-.7 2.3s-1.1 1.3-2.1 1.7c-.7.4-1.9.6-3.3.6zm12.7-.2v-14.3h-5.6v-2h13.5v2h-5.6v14.3h-2.3zm12.7-2h9.5v2h-11.8v-16.3h11.5v2h-9.2v12.3zm-.2-7.2h8.4v2h-8.4v-2zm13.5 9.2v-16.3h1.9l7.3 12.3h-1l7.2-12.3h1.9v16.3H490v-12.8h.5l-6.4 10.8H483l-6.5-10.8h.6v12.8h-2.2zm27 .2c-1.2 0-2.4-.2-3.6-.6-1.1-.4-2-.9-2.7-1.5l.9-1.8c.6.5 1.4 1 2.4 1.3 1 .4 2 .5 3 .5.9 0 1.7-.1 2.3-.3.6-.2 1-.5 1.3-.9s.4-.8.4-1.3c0-.6-.2-1-.5-1.4-.4-.3-.8-.6-1.4-.8s-1.2-.4-1.9-.5c-.7-.2-1.4-.3-2.1-.5s-1.3-.5-1.9-.8-1.1-.8-1.4-1.3c-.4-.6-.5-1.3-.5-2.1s.2-1.6.7-2.3c.4-.7 1.1-1.3 2-1.7s2.1-.6 3.5-.6c.9 0 1.9.1 2.8.4.9.2 1.7.6 2.4 1.1l-.8 1.9c-.7-.5-1.4-.8-2.2-1-.8-.2-1.5-.3-2.3-.3-.9 0-1.7.1-2.3.3-.6.2-1 .5-1.3.9s-.4.8-.4 1.3c0 .6.2 1 .5 1.4.4.3.8.6 1.4.8s1.2.4 1.9.5c.7.2 1.4.3 2.1.5s1.3.5 1.9.8 1.1.8 1.4 1.3c.4.5.5 1.2.5 2.1 0 .8-.2 1.6-.7 2.3s-1.1 1.3-2.1 1.7c-.7.4-1.9.6-3.3.6z"/>
    <path d="M555.8 150.7c-4.2-5-11.8-7.4-21.3-8 6 20.5 8.4 43.3 5.4 68.3 13.8-21.8 26.2-48 15.9-60.3z" class="st0"/>
    <path d="M562.5 115C548.2 66.8 493.7 28.2 400.6 0c5.3 3.6 11.2 8 17.3 13.2 25.1 21.3 40 45 43 68.6 3.4 26.9-7.9 53.7-33.7 80.1 12-4.6 29.7-11.1 48.2-16.3 45.3-12.7 73.9-12.3 85.1 1.1 2.1 2.5 3.5 5.3 4.4 8.6 2-12.5 1.8-26.2-2.4-40.3z" class="st1"/>
  </g>
</svg>
